<svg width="288" height="595" viewBox="0 0 288 595" fill="none" xmlns="http://www.w3.org/2000/svg">
<rect width="288" height="595" rx="16" fill="white"/>
<path d="M21.54 33C21.4373 33 21.358 32.972 21.302 32.916C21.246 32.8507 21.218 32.7713 21.218 32.678V23.536C21.218 23.4333 21.246 23.354 21.302 23.298C21.358 23.2327 21.4373 23.2 21.54 23.2H24.718C25.6793 23.2 26.454 23.3447 27.042 23.634C27.63 23.9233 28.0593 24.3527 28.33 24.922C28.6007 25.482 28.7407 26.1727 28.75 26.994C28.7593 27.414 28.764 27.7827 28.764 28.1C28.764 28.4173 28.7593 28.7813 28.75 29.192C28.7313 30.0507 28.5867 30.7647 28.316 31.334C28.0547 31.894 27.6347 32.314 27.056 32.594C26.4867 32.8647 25.7307 33 24.788 33H21.54ZM22.59 31.81H24.718C25.362 31.81 25.8753 31.7213 26.258 31.544C26.6407 31.3667 26.916 31.082 27.084 30.69C27.2613 30.298 27.3547 29.78 27.364 29.136C27.3827 28.856 27.392 28.6133 27.392 28.408C27.392 28.1933 27.392 27.9833 27.392 27.778C27.392 27.5633 27.3827 27.3207 27.364 27.05C27.3453 26.1447 27.1307 25.4773 26.72 25.048C26.3093 24.6093 25.6187 24.39 24.648 24.39H22.59V31.81ZM31.1923 33C31.0897 33 31.0103 32.972 30.9543 32.916C30.8983 32.8507 30.8703 32.7713 30.8703 32.678V23.536C30.8703 23.4333 30.8983 23.354 30.9543 23.298C31.0103 23.2327 31.0897 23.2 31.1923 23.2H36.9743C37.077 23.2 37.1563 23.2327 37.2123 23.298C37.2683 23.354 37.2963 23.4333 37.2963 23.536V24.068C37.2963 24.1707 37.2683 24.25 37.2123 24.306C37.1563 24.362 37.077 24.39 36.9743 24.39H32.2143V27.456H36.6663C36.769 27.456 36.8483 27.4887 36.9043 27.554C36.9603 27.61 36.9883 27.6893 36.9883 27.792V28.31C36.9883 28.4033 36.9603 28.4827 36.9043 28.548C36.8483 28.604 36.769 28.632 36.6663 28.632H32.2143V31.81H37.0863C37.189 31.81 37.2683 31.838 37.3243 31.894C37.3803 31.95 37.4083 32.0293 37.4083 32.132V32.678C37.4083 32.7713 37.3803 32.8507 37.3243 32.916C37.2683 32.972 37.189 33 37.0863 33H31.1923ZM42.5106 33.14C41.6986 33.14 41.0172 33.0187 40.4666 32.776C39.9159 32.524 39.4912 32.202 39.1926 31.81C38.9032 31.4087 38.7492 30.984 38.7306 30.536C38.7306 30.4613 38.7586 30.396 38.8146 30.34C38.8799 30.2747 38.9546 30.242 39.0386 30.242H39.7526C39.8646 30.242 39.9486 30.27 40.0046 30.326C40.0606 30.382 40.0979 30.4473 40.1166 30.522C40.1632 30.746 40.2752 30.97 40.4526 31.194C40.6392 31.4087 40.8959 31.5907 41.2226 31.74C41.5586 31.88 41.9879 31.95 42.5106 31.95C43.3132 31.95 43.9012 31.81 44.2746 31.53C44.6572 31.2407 44.8486 30.858 44.8486 30.382C44.8486 30.0553 44.7459 29.794 44.5406 29.598C44.3446 29.3927 44.0412 29.2107 43.6306 29.052C43.2199 28.8933 42.6879 28.7207 42.0346 28.534C41.3532 28.338 40.7886 28.1233 40.3406 27.89C39.8926 27.6567 39.5566 27.3673 39.3326 27.022C39.1179 26.6767 39.0106 26.238 39.0106 25.706C39.0106 25.202 39.1459 24.754 39.4166 24.362C39.6872 23.9607 40.0746 23.6433 40.5786 23.41C41.0919 23.1767 41.7126 23.06 42.4406 23.06C43.0192 23.06 43.5232 23.1393 43.9526 23.298C44.3912 23.4473 44.7552 23.6527 45.0446 23.914C45.3339 24.166 45.5532 24.4413 45.7026 24.74C45.8519 25.0293 45.9312 25.314 45.9406 25.594C45.9406 25.6593 45.9172 25.7247 45.8706 25.79C45.8239 25.846 45.7492 25.874 45.6466 25.874H44.9046C44.8392 25.874 44.7692 25.8553 44.6946 25.818C44.6292 25.7807 44.5779 25.7107 44.5406 25.608C44.4846 25.2253 44.2699 24.9033 43.8966 24.642C43.5232 24.3807 43.0379 24.25 42.4406 24.25C41.8339 24.25 41.3392 24.3667 40.9566 24.6C40.5832 24.8333 40.3966 25.1973 40.3966 25.692C40.3966 26.0093 40.4852 26.2753 40.6626 26.49C40.8399 26.6953 41.1199 26.8773 41.5026 27.036C41.8852 27.1947 42.3846 27.3627 43.0006 27.54C43.7472 27.7453 44.3586 27.9647 44.8346 28.198C45.3106 28.422 45.6606 28.7067 45.8846 29.052C46.1179 29.388 46.2346 29.822 46.2346 30.354C46.2346 30.942 46.0806 31.446 45.7726 31.866C45.4646 32.2767 45.0306 32.594 44.4706 32.818C43.9199 33.0327 43.2666 33.14 42.5106 33.14ZM50.4242 33C50.3309 33 50.2515 32.972 50.1862 32.916C50.1302 32.8507 50.1022 32.7713 50.1022 32.678V24.446H47.4142C47.3209 24.446 47.2415 24.418 47.1762 24.362C47.1202 24.2967 47.0922 24.2173 47.0922 24.124V23.536C47.0922 23.4333 47.1202 23.354 47.1762 23.298C47.2415 23.2327 47.3209 23.2 47.4142 23.2H54.1622C54.2649 23.2 54.3442 23.2327 54.4002 23.298C54.4655 23.354 54.4982 23.4333 54.4982 23.536V24.124C54.4982 24.2173 54.4655 24.2967 54.4002 24.362C54.3442 24.418 54.2649 24.446 54.1622 24.446H51.4882V32.678C51.4882 32.7713 51.4555 32.8507 51.3902 32.916C51.3342 32.972 51.2549 33 51.1522 33H50.4242ZM56.3896 33C56.2869 33 56.2076 32.972 56.1516 32.916C56.0956 32.8507 56.0676 32.7713 56.0676 32.678V23.522C56.0676 23.4287 56.0956 23.354 56.1516 23.298C56.2076 23.2327 56.2869 23.2 56.3896 23.2H57.1316C57.2249 23.2 57.2996 23.2327 57.3556 23.298C57.4209 23.354 57.4536 23.4287 57.4536 23.522V32.678C57.4536 32.7713 57.4209 32.8507 57.3556 32.916C57.2996 32.972 57.2249 33 57.1316 33H56.3896ZM60.2177 33C60.1151 33 60.0357 32.972 59.9797 32.916C59.9237 32.8507 59.8957 32.7713 59.8957 32.678V23.536C59.8957 23.4333 59.9237 23.354 59.9797 23.298C60.0357 23.2327 60.1151 23.2 60.2177 23.2H60.8617C60.9737 23.2 61.0577 23.228 61.1137 23.284C61.1697 23.3307 61.2024 23.368 61.2117 23.396L65.8597 30.536V23.536C65.8597 23.4333 65.8877 23.354 65.9437 23.298C65.9997 23.2327 66.0791 23.2 66.1817 23.2H66.8537C66.9564 23.2 67.0357 23.2327 67.0917 23.298C67.1571 23.354 67.1897 23.4333 67.1897 23.536V32.664C67.1897 32.7573 67.1571 32.8367 67.0917 32.902C67.0357 32.9673 66.9611 33 66.8677 33H66.1957C66.0931 33 66.0137 32.972 65.9577 32.916C65.9111 32.86 65.8784 32.8227 65.8597 32.804L61.2257 25.734V32.678C61.2257 32.7713 61.1931 32.8507 61.1277 32.916C61.0717 32.972 60.9924 33 60.8897 33H60.2177ZM68.9584 33C68.8838 33 68.8184 32.972 68.7624 32.916C68.7064 32.86 68.6784 32.7947 68.6784 32.72C68.6784 32.6733 68.6831 32.622 68.6924 32.566L72.1644 23.508C72.2018 23.4147 72.2531 23.34 72.3184 23.284C72.3838 23.228 72.4818 23.2 72.6124 23.2H73.5644C73.6858 23.2 73.7791 23.228 73.8444 23.284C73.9191 23.34 73.9751 23.4147 74.0124 23.508L77.4704 32.566C77.4891 32.622 77.4984 32.6733 77.4984 32.72C77.4984 32.7947 77.4704 32.86 77.4144 32.916C77.3584 32.972 77.2931 33 77.2184 33H76.5044C76.3924 33 76.3084 32.972 76.2524 32.916C76.2058 32.86 76.1731 32.8087 76.1544 32.762L75.3844 30.774H70.7924L70.0224 32.762C70.0131 32.8087 69.9804 32.86 69.9244 32.916C69.8684 32.972 69.7844 33 69.6724 33H68.9584ZM71.1984 29.57H74.9784L73.0884 24.6L71.1984 29.57ZM80.4203 33C80.3269 33 80.2476 32.972 80.1823 32.916C80.1263 32.8507 80.0983 32.7713 80.0983 32.678V24.446H77.4103C77.3169 24.446 77.2376 24.418 77.1723 24.362C77.1163 24.2967 77.0883 24.2173 77.0883 24.124V23.536C77.0883 23.4333 77.1163 23.354 77.1723 23.298C77.2376 23.2327 77.3169 23.2 77.4103 23.2H84.1583C84.2609 23.2 84.3403 23.2327 84.3963 23.298C84.4616 23.354 84.4943 23.4333 84.4943 23.536V24.124C84.4943 24.2173 84.4616 24.2967 84.3963 24.362C84.3403 24.418 84.2609 24.446 84.1583 24.446H81.4843V32.678C81.4843 32.7713 81.4516 32.8507 81.3863 32.916C81.3303 32.972 81.2509 33 81.1483 33H80.4203ZM86.3857 33C86.283 33 86.2037 32.972 86.1477 32.916C86.0917 32.8507 86.0637 32.7713 86.0637 32.678V23.522C86.0637 23.4287 86.0917 23.354 86.1477 23.298C86.2037 23.2327 86.283 23.2 86.3857 23.2H87.1277C87.221 23.2 87.2957 23.2327 87.3517 23.298C87.417 23.354 87.4497 23.4287 87.4497 23.522V32.678C87.4497 32.7713 87.417 32.8507 87.3517 32.916C87.2957 32.972 87.221 33 87.1277 33H86.3857ZM93.4058 33.14C92.6125 33.14 91.9312 33.0047 91.3618 32.734C90.7925 32.454 90.3538 32.0293 90.0458 31.46C89.7378 30.8813 89.5652 30.158 89.5278 29.29C89.5185 28.8793 89.5138 28.4873 89.5138 28.114C89.5138 27.7313 89.5185 27.3347 89.5278 26.924C89.5652 26.0653 89.7425 25.3513 90.0598 24.782C90.3865 24.2033 90.8345 23.774 91.4038 23.494C91.9825 23.2047 92.6498 23.06 93.4058 23.06C94.1712 23.06 94.8385 23.2047 95.4078 23.494C95.9865 23.774 96.4392 24.2033 96.7658 24.782C97.0925 25.3513 97.2698 26.0653 97.2978 26.924C97.3165 27.3347 97.3258 27.7313 97.3258 28.114C97.3258 28.4873 97.3165 28.8793 97.2978 29.29C97.2698 30.158 97.0972 30.8813 96.7798 31.46C96.4718 32.0293 96.0332 32.454 95.4638 32.734C94.8945 33.0047 94.2085 33.14 93.4058 33.14ZM93.4058 31.95C94.1245 31.95 94.7078 31.7353 95.1558 31.306C95.6132 30.8767 95.8605 30.1813 95.8978 29.22C95.9165 28.8 95.9258 28.4267 95.9258 28.1C95.9258 27.764 95.9165 27.3907 95.8978 26.98C95.8792 26.336 95.7578 25.8133 95.5338 25.412C95.3192 25.0107 95.0298 24.7167 94.6658 24.53C94.3018 24.3433 93.8818 24.25 93.4058 24.25C92.9485 24.25 92.5378 24.3433 92.1738 24.53C91.8098 24.7167 91.5158 25.0107 91.2918 25.412C91.0772 25.8133 90.9558 26.336 90.9278 26.98C90.9185 27.3907 90.9138 27.764 90.9138 28.1C90.9138 28.4267 90.9185 28.8 90.9278 29.22C90.9652 30.1813 91.2125 30.8767 91.6698 31.306C92.1272 31.7353 92.7058 31.95 93.4058 31.95ZM99.6884 33C99.5858 33 99.5064 32.972 99.4504 32.916C99.3944 32.8507 99.3664 32.7713 99.3664 32.678V23.536C99.3664 23.4333 99.3944 23.354 99.4504 23.298C99.5064 23.2327 99.5858 23.2 99.6884 23.2H100.332C100.444 23.2 100.528 23.228 100.584 23.284C100.64 23.3307 100.673 23.368 100.682 23.396L105.33 30.536V23.536C105.33 23.4333 105.358 23.354 105.414 23.298C105.47 23.2327 105.55 23.2 105.652 23.2H106.324C106.427 23.2 106.506 23.2327 106.562 23.298C106.628 23.354 106.66 23.4333 106.66 23.536V32.664C106.66 32.7573 106.628 32.8367 106.562 32.902C106.506 32.9673 106.432 33 106.338 33H105.666C105.564 33 105.484 32.972 105.428 32.916C105.382 32.86 105.349 32.8227 105.33 32.804L100.696 25.734V32.678C100.696 32.7713 100.664 32.8507 100.598 32.916C100.542 32.972 100.463 33 100.36 33H99.6884Z" fill="#767E86"/>
<path d="M24.41 54.088C26.0807 54.088 27.322 54.508 28.134 55.348C28.946 56.1787 29.352 57.3733 29.352 58.932C29.352 59.9493 29.1513 60.8407 28.75 61.606C28.358 62.362 27.784 62.95 27.028 63.37C26.272 63.79 25.3573 64 24.284 64C24.0787 64 23.7753 63.9953 23.374 63.986C22.9727 63.9673 22.6227 63.958 22.324 63.958C21.9973 63.958 21.6753 63.9627 21.358 63.972C21.0407 63.972 20.784 63.9813 20.588 64V63.72C20.9053 63.7013 21.1433 63.664 21.302 63.608C21.47 63.552 21.582 63.44 21.638 63.272C21.694 63.104 21.722 62.852 21.722 62.516V55.572C21.722 55.2267 21.694 54.9747 21.638 54.816C21.582 54.648 21.47 54.536 21.302 54.48C21.1433 54.4147 20.9053 54.3773 20.588 54.368V54.088C20.784 54.0973 21.0407 54.1113 21.358 54.13C21.6753 54.1393 21.988 54.1393 22.296 54.13C22.6227 54.1207 22.9913 54.1113 23.402 54.102C23.8127 54.0927 24.1487 54.088 24.41 54.088ZM24.06 54.34C23.6307 54.34 23.3507 54.4193 23.22 54.578C23.0893 54.7367 23.024 55.0587 23.024 55.544V62.544C23.024 63.0293 23.0893 63.3513 23.22 63.51C23.36 63.6687 23.6447 63.748 24.074 63.748C25.0913 63.748 25.88 63.566 26.44 63.202C27 62.8287 27.392 62.2873 27.616 61.578C27.84 60.8687 27.952 60.0053 27.952 58.988C27.952 57.42 27.6627 56.2533 27.084 55.488C26.5147 54.7227 25.5067 54.34 24.06 54.34ZM36.8792 56.636V62.488C36.8792 62.908 36.9539 63.2207 37.1032 63.426C37.2619 63.622 37.5419 63.72 37.9432 63.72V64.014C37.6539 63.986 37.3645 63.972 37.0752 63.972C36.8045 63.972 36.5432 63.986 36.2912 64.014C36.0485 64.042 35.8245 64.0933 35.6192 64.168V62.516C35.3859 63.1227 35.0545 63.5567 34.6252 63.818C34.2052 64.07 33.7712 64.196 33.3232 64.196C32.9965 64.196 32.7119 64.1493 32.4692 64.056C32.2265 63.9627 32.0259 63.832 31.8672 63.664C31.6899 63.4773 31.5685 63.2347 31.5032 62.936C31.4379 62.6373 31.4052 62.2687 31.4052 61.83V58.316C31.4052 57.896 31.3305 57.588 31.1812 57.392C31.0319 57.1867 30.7519 57.084 30.3412 57.084V56.79C30.6399 56.818 30.9292 56.832 31.2092 56.832C31.4799 56.832 31.7365 56.818 31.9792 56.79C32.2312 56.7527 32.4599 56.7013 32.6652 56.636V62.138C32.6652 62.4273 32.6839 62.6933 32.7212 62.936C32.7585 63.1787 32.8519 63.3747 33.0012 63.524C33.1505 63.6733 33.3932 63.748 33.7292 63.748C34.2799 63.748 34.7325 63.5053 35.0872 63.02C35.4419 62.5253 35.6192 61.9233 35.6192 61.214V58.316C35.6192 57.896 35.5445 57.588 35.3952 57.392C35.2459 57.1867 34.9659 57.084 34.5552 57.084V56.79C34.8539 56.818 35.1432 56.832 35.4232 56.832C35.6939 56.832 35.9505 56.818 36.1932 56.79C36.4452 56.7527 36.6739 56.7013 36.8792 56.636ZM42.816 56.594C43.5813 56.594 44.216 56.9113 44.72 57.546C45.224 58.1713 45.476 59.1233 45.476 60.402C45.476 61.242 45.3313 61.9467 45.042 62.516C44.762 63.076 44.384 63.496 43.908 63.776C43.432 64.056 42.914 64.196 42.354 64.196C41.8873 64.196 41.4346 64.0653 40.996 63.804C40.5666 63.5333 40.2446 63.1367 40.03 62.614L40.31 62.768C40.5433 63.1413 40.8326 63.4213 41.178 63.608C41.5233 63.7853 41.878 63.874 42.242 63.874C42.8673 63.874 43.334 63.594 43.642 63.034C43.9593 62.4647 44.118 61.5873 44.118 60.402C44.118 59.646 44.0573 59.016 43.936 58.512C43.8146 58.008 43.628 57.6347 43.376 57.392C43.124 57.14 42.802 57.014 42.41 57.014C41.9806 57.014 41.5793 57.21 41.206 57.602C40.842 57.9847 40.618 58.5493 40.534 59.296L40.366 59.1C40.4686 58.3067 40.744 57.6907 41.192 57.252C41.6493 56.8133 42.1906 56.594 42.816 56.594ZM40.632 53.038V63.272C40.5106 63.3747 40.3846 63.482 40.254 63.594C40.1326 63.6967 40.0113 63.7993 39.89 63.902C39.7686 64.0047 39.6426 64.112 39.512 64.224L39.274 64.126C39.3113 63.9953 39.3346 63.8647 39.344 63.734C39.3626 63.594 39.372 63.454 39.372 63.314V54.718C39.372 54.298 39.2973 53.99 39.148 53.794C38.9986 53.5887 38.7186 53.486 38.308 53.486V53.192C38.6066 53.22 38.896 53.234 39.176 53.234C39.4466 53.234 39.7033 53.22 39.946 53.192C40.198 53.1547 40.4266 53.1033 40.632 53.038ZM48.4226 64.098C47.816 64.098 47.3726 63.9487 47.0926 63.65C46.822 63.342 46.6866 62.936 46.6866 62.432C46.6866 62.04 46.78 61.718 46.9666 61.466C47.1626 61.2047 47.41 60.9947 47.7086 60.836C48.0073 60.668 48.32 60.528 48.6466 60.416C48.9826 60.2947 49.3 60.178 49.5986 60.066C49.8973 59.954 50.14 59.828 50.3266 59.688C50.5226 59.548 50.6206 59.3707 50.6206 59.156V58.288C50.6206 57.896 50.56 57.5973 50.4386 57.392C50.3266 57.1867 50.1726 57.0513 49.9766 56.986C49.7806 56.9113 49.5613 56.874 49.3186 56.874C49.0853 56.874 48.8333 56.9067 48.5626 56.972C48.3013 57.0373 48.0913 57.1727 47.9326 57.378C48.11 57.4153 48.264 57.5087 48.3946 57.658C48.5253 57.8073 48.5906 57.9987 48.5906 58.232C48.5906 58.4653 48.516 58.652 48.3666 58.792C48.2173 58.9227 48.026 58.988 47.7926 58.988C47.522 58.988 47.3213 58.904 47.1906 58.736C47.0693 58.5587 47.0086 58.3627 47.0086 58.148C47.0086 57.9053 47.0693 57.7093 47.1906 57.56C47.312 57.4107 47.466 57.2707 47.6526 57.14C47.8673 56.9907 48.1426 56.8647 48.4786 56.762C48.824 56.65 49.2113 56.594 49.6406 56.594C50.0233 56.594 50.35 56.6407 50.6206 56.734C50.8913 56.818 51.1153 56.944 51.2926 57.112C51.5353 57.336 51.694 57.6113 51.7686 57.938C51.8433 58.2553 51.8806 58.638 51.8806 59.086V62.978C51.8806 63.202 51.9133 63.37 51.9786 63.482C52.044 63.5847 52.156 63.636 52.3146 63.636C52.4453 63.636 52.5573 63.608 52.6506 63.552C52.7533 63.496 52.8513 63.426 52.9446 63.342L53.0986 63.58C52.9026 63.7293 52.716 63.8553 52.5386 63.958C52.3613 64.0513 52.1233 64.098 51.8246 64.098C51.3393 64.098 51.0173 63.972 50.8586 63.72C50.7 63.468 50.6206 63.1787 50.6206 62.852C50.322 63.3467 49.9813 63.678 49.5986 63.846C49.2253 64.014 48.8333 64.098 48.4226 64.098ZM49.0386 63.538C49.3186 63.538 49.594 63.4587 49.8646 63.3C50.1353 63.132 50.3873 62.8567 50.6206 62.474V59.73C50.4806 59.9353 50.2613 60.0987 49.9626 60.22C49.6733 60.3413 49.37 60.4767 49.0526 60.626C48.7446 60.766 48.4786 60.962 48.2546 61.214C48.0306 61.4567 47.9186 61.8067 47.9186 62.264C47.9186 62.6933 48.026 63.0153 48.2406 63.23C48.4553 63.4353 48.7213 63.538 49.0386 63.538ZM55.1153 53.29C55.3579 53.29 55.5679 53.3787 55.7453 53.556C55.9226 53.7333 56.0113 53.9433 56.0113 54.186C56.0113 54.4287 55.9226 54.6387 55.7453 54.816C55.5679 54.9933 55.3579 55.082 55.1153 55.082C54.8726 55.082 54.6626 54.9933 54.4853 54.816C54.3079 54.6387 54.2193 54.4287 54.2193 54.186C54.2193 53.9433 54.3079 53.7333 54.4853 53.556C54.6626 53.3787 54.8726 53.29 55.1153 53.29ZM55.8433 56.636V62.698C55.8433 63.09 55.9226 63.356 56.0813 63.496C56.2493 63.636 56.5246 63.706 56.9073 63.706V64C56.7486 63.9907 56.5059 63.9813 56.1793 63.972C55.8619 63.9533 55.5399 63.944 55.2133 63.944C54.8959 63.944 54.5739 63.9533 54.2473 63.972C53.9206 63.9813 53.6779 63.9907 53.5193 64V63.706C53.9019 63.706 54.1726 63.636 54.3313 63.496C54.4993 63.356 54.5833 63.09 54.5833 62.698V58.316C54.5833 57.896 54.5086 57.588 54.3593 57.392C54.2099 57.1867 53.9299 57.084 53.5193 57.084V56.79C53.8179 56.818 54.1073 56.832 54.3873 56.832C54.6579 56.832 54.9146 56.818 55.1573 56.79C55.4093 56.7527 55.6379 56.7013 55.8433 56.636Z" fill="#172432"/>
<path d="M268 77H20V79H268V77Z" fill="black" mask="url(#path-3-inside-1_38_791)"/>
<path d="M21.54 131C21.4373 131 21.358 130.972 21.302 130.916C21.246 130.851 21.218 130.771 21.218 130.678V121.536C21.218 121.433 21.246 121.354 21.302 121.298C21.358 121.233 21.4373 121.2 21.54 121.2H25.096C25.7867 121.2 26.384 121.312 26.888 121.536C27.4013 121.76 27.798 122.096 28.078 122.544C28.358 122.983 28.498 123.533 28.498 124.196C28.498 124.859 28.358 125.409 28.078 125.848C27.798 126.287 27.4013 126.618 26.888 126.842C26.384 127.066 25.7867 127.178 25.096 127.178H22.618V130.678C22.618 130.771 22.5853 130.851 22.52 130.916C22.464 130.972 22.3847 131 22.282 131H21.54ZM22.604 126.002H25.026C25.7167 126.002 26.2347 125.848 26.58 125.54C26.9253 125.232 27.098 124.784 27.098 124.196C27.098 123.617 26.93 123.169 26.594 122.852C26.258 122.535 25.7353 122.376 25.026 122.376H22.604V126.002ZM30.5224 131C30.4198 131 30.3404 130.972 30.2844 130.916C30.2284 130.851 30.2004 130.771 30.2004 130.678V121.536C30.2004 121.433 30.2284 121.354 30.2844 121.298C30.3404 121.233 30.4198 121.2 30.5224 121.2H36.3044C36.4071 121.2 36.4864 121.233 36.5424 121.298C36.5984 121.354 36.6264 121.433 36.6264 121.536V122.068C36.6264 122.171 36.5984 122.25 36.5424 122.306C36.4864 122.362 36.4071 122.39 36.3044 122.39H31.5444V125.456H35.9964C36.0991 125.456 36.1784 125.489 36.2344 125.554C36.2904 125.61 36.3184 125.689 36.3184 125.792V126.31C36.3184 126.403 36.2904 126.483 36.2344 126.548C36.1784 126.604 36.0991 126.632 35.9964 126.632H31.5444V129.81H36.4164C36.5191 129.81 36.5984 129.838 36.6544 129.894C36.7104 129.95 36.7384 130.029 36.7384 130.132V130.678C36.7384 130.771 36.7104 130.851 36.6544 130.916C36.5984 130.972 36.5191 131 36.4164 131H30.5224ZM39.0127 131C38.91 131 38.8307 130.972 38.7747 130.916C38.7187 130.851 38.6907 130.771 38.6907 130.678V121.536C38.6907 121.433 38.7187 121.354 38.7747 121.298C38.8307 121.233 38.91 121.2 39.0127 121.2H42.4287C43.4833 121.2 44.3187 121.447 44.9347 121.942C45.5507 122.437 45.8587 123.169 45.8587 124.14C45.8587 124.859 45.6767 125.447 45.3127 125.904C44.958 126.352 44.4727 126.665 43.8567 126.842L46.0127 130.566C46.0407 130.622 46.0547 130.673 46.0547 130.72C46.0547 130.795 46.022 130.86 45.9567 130.916C45.9007 130.972 45.8353 131 45.7607 131H45.0887C44.93 131 44.8133 130.958 44.7387 130.874C44.664 130.79 44.5987 130.706 44.5427 130.622L42.5127 127.066H40.0627V130.678C40.0627 130.771 40.03 130.851 39.9647 130.916C39.9087 130.972 39.8293 131 39.7267 131H39.0127ZM40.0627 125.876H42.3727C43.0727 125.876 43.5953 125.731 43.9407 125.442C44.286 125.143 44.4587 124.705 44.4587 124.126C44.4587 123.557 44.286 123.123 43.9407 122.824C43.6047 122.525 43.082 122.376 42.3727 122.376H40.0627V125.876ZM51.0145 131.14C50.2025 131.14 49.5212 131.019 48.9705 130.776C48.4198 130.524 47.9952 130.202 47.6965 129.81C47.4072 129.409 47.2532 128.984 47.2345 128.536C47.2345 128.461 47.2625 128.396 47.3185 128.34C47.3838 128.275 47.4585 128.242 47.5425 128.242H48.2565C48.3685 128.242 48.4525 128.27 48.5085 128.326C48.5645 128.382 48.6018 128.447 48.6205 128.522C48.6672 128.746 48.7792 128.97 48.9565 129.194C49.1432 129.409 49.3998 129.591 49.7265 129.74C50.0625 129.88 50.4918 129.95 51.0145 129.95C51.8172 129.95 52.4052 129.81 52.7785 129.53C53.1612 129.241 53.3525 128.858 53.3525 128.382C53.3525 128.055 53.2498 127.794 53.0445 127.598C52.8485 127.393 52.5452 127.211 52.1345 127.052C51.7238 126.893 51.1918 126.721 50.5385 126.534C49.8572 126.338 49.2925 126.123 48.8445 125.89C48.3965 125.657 48.0605 125.367 47.8365 125.022C47.6218 124.677 47.5145 124.238 47.5145 123.706C47.5145 123.202 47.6498 122.754 47.9205 122.362C48.1912 121.961 48.5785 121.643 49.0825 121.41C49.5958 121.177 50.2165 121.06 50.9445 121.06C51.5232 121.06 52.0272 121.139 52.4565 121.298C52.8952 121.447 53.2592 121.653 53.5485 121.914C53.8378 122.166 54.0572 122.441 54.2065 122.74C54.3558 123.029 54.4352 123.314 54.4445 123.594C54.4445 123.659 54.4212 123.725 54.3745 123.79C54.3278 123.846 54.2532 123.874 54.1505 123.874H53.4085C53.3432 123.874 53.2732 123.855 53.1985 123.818C53.1332 123.781 53.0818 123.711 53.0445 123.608C52.9885 123.225 52.7738 122.903 52.4005 122.642C52.0272 122.381 51.5418 122.25 50.9445 122.25C50.3378 122.25 49.8432 122.367 49.4605 122.6C49.0872 122.833 48.9005 123.197 48.9005 123.692C48.9005 124.009 48.9892 124.275 49.1665 124.49C49.3438 124.695 49.6238 124.877 50.0065 125.036C50.3892 125.195 50.8885 125.363 51.5045 125.54C52.2512 125.745 52.8625 125.965 53.3385 126.198C53.8145 126.422 54.1645 126.707 54.3885 127.052C54.6218 127.388 54.7385 127.822 54.7385 128.354C54.7385 128.942 54.5845 129.446 54.2765 129.866C53.9685 130.277 53.5345 130.594 52.9745 130.818C52.4238 131.033 51.7705 131.14 51.0145 131.14ZM60.0875 131.14C59.2941 131.14 58.6128 131.005 58.0435 130.734C57.4741 130.454 57.0355 130.029 56.7275 129.46C56.4195 128.881 56.2468 128.158 56.2095 127.29C56.2001 126.879 56.1955 126.487 56.1955 126.114C56.1955 125.731 56.2001 125.335 56.2095 124.924C56.2468 124.065 56.4241 123.351 56.7415 122.782C57.0681 122.203 57.5161 121.774 58.0855 121.494C58.6641 121.205 59.3315 121.06 60.0875 121.06C60.8528 121.06 61.5201 121.205 62.0895 121.494C62.6681 121.774 63.1208 122.203 63.4475 122.782C63.7741 123.351 63.9515 124.065 63.9795 124.924C63.9981 125.335 64.0075 125.731 64.0075 126.114C64.0075 126.487 63.9981 126.879 63.9795 127.29C63.9515 128.158 63.7788 128.881 63.4615 129.46C63.1535 130.029 62.7148 130.454 62.1455 130.734C61.5761 131.005 60.8901 131.14 60.0875 131.14ZM60.0875 129.95C60.8061 129.95 61.3895 129.735 61.8375 129.306C62.2948 128.877 62.5421 128.181 62.5795 127.22C62.5981 126.8 62.6075 126.427 62.6075 126.1C62.6075 125.764 62.5981 125.391 62.5795 124.98C62.5608 124.336 62.4395 123.813 62.2155 123.412C62.0008 123.011 61.7115 122.717 61.3475 122.53C60.9835 122.343 60.5635 122.25 60.0875 122.25C59.6301 122.25 59.2195 122.343 58.8555 122.53C58.4915 122.717 58.1975 123.011 57.9735 123.412C57.7588 123.813 57.6375 124.336 57.6095 124.98C57.6001 125.391 57.5955 125.764 57.5955 126.1C57.5955 126.427 57.6001 126.8 57.6095 127.22C57.6468 128.181 57.8941 128.877 58.3515 129.306C58.8088 129.735 59.3875 129.95 60.0875 129.95ZM66.3701 131C66.2674 131 66.1881 130.972 66.1321 130.916C66.0761 130.851 66.0481 130.771 66.0481 130.678V121.536C66.0481 121.433 66.0761 121.354 66.1321 121.298C66.1881 121.233 66.2674 121.2 66.3701 121.2H67.0141C67.1261 121.2 67.2101 121.228 67.2661 121.284C67.3221 121.331 67.3547 121.368 67.3641 121.396L72.0121 128.536V121.536C72.0121 121.433 72.0401 121.354 72.0961 121.298C72.1521 121.233 72.2314 121.2 72.3341 121.2H73.0061C73.1087 121.2 73.1881 121.233 73.2441 121.298C73.3094 121.354 73.3421 121.433 73.3421 121.536V130.664C73.3421 130.757 73.3094 130.837 73.2441 130.902C73.1881 130.967 73.1134 131 73.0201 131H72.3481C72.2454 131 72.1661 130.972 72.1101 130.916C72.0634 130.86 72.0307 130.823 72.0121 130.804L67.3781 123.734V130.678C67.3781 130.771 67.3454 130.851 67.2801 130.916C67.2241 130.972 67.1447 131 67.0421 131H66.3701Z" fill="#767E86"/>
<path d="M23.416 154.594C24.06 154.594 24.5687 154.748 24.942 155.056C25.3247 155.355 25.516 155.789 25.516 156.358C25.516 156.825 25.3853 157.263 25.124 157.674C24.8627 158.075 24.536 158.458 24.144 158.822C23.752 159.186 23.36 159.541 22.968 159.886C22.576 160.231 22.254 160.577 22.002 160.922H24.844C25.2267 160.922 25.4693 160.871 25.572 160.768C25.6747 160.656 25.7447 160.469 25.782 160.208H26.02C26.02 160.703 26.0247 161.085 26.034 161.356C26.0433 161.617 26.0573 161.855 26.076 162.07C25.9547 162.042 25.6793 162.023 25.25 162.014C24.83 162.005 24.41 162 23.99 162H20.714V161.762C20.994 161.454 21.33 161.127 21.722 160.782C22.114 160.427 22.492 160.045 22.856 159.634C23.2293 159.214 23.5373 158.761 23.78 158.276C24.032 157.781 24.158 157.245 24.158 156.666C24.158 156.134 24.032 155.751 23.78 155.518C23.5373 155.275 23.1967 155.154 22.758 155.154C22.3847 155.154 22.0393 155.266 21.722 155.49C21.4047 155.705 21.1247 156.031 20.882 156.47L20.658 156.344C20.8727 155.905 21.1947 155.504 21.624 155.14C22.0627 154.776 22.66 154.594 23.416 154.594Z" fill="#172432"/>
<path d="M250 156.5L256 162.5L262 156.5" stroke="black" stroke-linecap="round" stroke-linejoin="round"/>
<rect x="244" y="150" width="23" height="20" fill="white"/>
<path d="M268 180H20V182H268V180Z" fill="black" mask="url(#path-7-inside-2_38_791)"/>
<path d="M24.746 234.14C23.8873 234.14 23.1733 233.981 22.604 233.664C22.044 233.347 21.6193 232.903 21.33 232.334C21.0407 231.765 20.882 231.102 20.854 230.346C20.8447 229.963 20.84 229.553 20.84 229.114C20.84 228.675 20.8447 228.255 20.854 227.854C20.882 227.098 21.0407 226.435 21.33 225.866C21.6193 225.297 22.044 224.853 22.604 224.536C23.1733 224.219 23.8873 224.06 24.746 224.06C25.39 224.06 25.9547 224.149 26.44 224.326C26.9253 224.503 27.3267 224.741 27.644 225.04C27.9707 225.339 28.218 225.675 28.386 226.048C28.554 226.412 28.6473 226.79 28.666 227.182C28.6753 227.266 28.6473 227.336 28.582 227.392C28.526 227.448 28.456 227.476 28.372 227.476H27.602C27.518 227.476 27.4433 227.453 27.378 227.406C27.322 227.359 27.28 227.275 27.252 227.154C27.0933 226.426 26.7947 225.927 26.356 225.656C25.9267 225.385 25.3853 225.25 24.732 225.25C23.9853 225.25 23.3927 225.465 22.954 225.894C22.5153 226.314 22.2773 226.991 22.24 227.924C22.212 228.689 22.212 229.473 22.24 230.276C22.2773 231.209 22.5153 231.891 22.954 232.32C23.3927 232.74 23.9853 232.95 24.732 232.95C25.3853 232.95 25.9267 232.815 26.356 232.544C26.7947 232.273 27.0933 231.774 27.252 231.046C27.28 230.925 27.322 230.841 27.378 230.794C27.4433 230.747 27.518 230.724 27.602 230.724H28.372C28.456 230.724 28.526 230.752 28.582 230.808C28.6473 230.864 28.6753 230.934 28.666 231.018C28.6473 231.41 28.554 231.793 28.386 232.166C28.218 232.53 27.9707 232.861 27.644 233.16C27.3267 233.459 26.9253 233.697 26.44 233.874C25.9547 234.051 25.39 234.14 24.746 234.14ZM30.8642 234C30.7616 234 30.6822 233.972 30.6262 233.916C30.5702 233.851 30.5422 233.771 30.5422 233.678V224.536C30.5422 224.433 30.5702 224.354 30.6262 224.298C30.6822 224.233 30.7616 224.2 30.8642 224.2H31.5782C31.6809 224.2 31.7602 224.233 31.8162 224.298C31.8816 224.354 31.9142 224.433 31.9142 224.536V228.4H36.7302V224.536C36.7302 224.433 36.7582 224.354 36.8142 224.298C36.8796 224.233 36.9589 224.2 37.0522 224.2H37.7662C37.8689 224.2 37.9482 224.233 38.0042 224.298C38.0696 224.354 38.1022 224.433 38.1022 224.536V233.678C38.1022 233.771 38.0696 233.851 38.0042 233.916C37.9482 233.972 37.8689 234 37.7662 234H37.0522C36.9589 234 36.8796 233.972 36.8142 233.916C36.7582 233.851 36.7302 233.771 36.7302 233.678V229.66H31.9142V233.678C31.9142 233.771 31.8816 233.851 31.8162 233.916C31.7602 233.972 31.6809 234 31.5782 234H30.8642ZM40.8447 234C40.742 234 40.6627 233.972 40.6067 233.916C40.5507 233.851 40.5227 233.771 40.5227 233.678V224.536C40.5227 224.433 40.5507 224.354 40.6067 224.298C40.6627 224.233 40.742 224.2 40.8447 224.2H46.6267C46.7294 224.2 46.8087 224.233 46.8647 224.298C46.9207 224.354 46.9487 224.433 46.9487 224.536V225.068C46.9487 225.171 46.9207 225.25 46.8647 225.306C46.8087 225.362 46.7294 225.39 46.6267 225.39H41.8667V228.456H46.3187C46.4214 228.456 46.5007 228.489 46.5567 228.554C46.6127 228.61 46.6407 228.689 46.6407 228.792V229.31C46.6407 229.403 46.6127 229.483 46.5567 229.548C46.5007 229.604 46.4214 229.632 46.3187 229.632H41.8667V232.81H46.7387C46.8414 232.81 46.9207 232.838 46.9767 232.894C47.0327 232.95 47.0607 233.029 47.0607 233.132V233.678C47.0607 233.771 47.0327 233.851 46.9767 233.916C46.9207 233.972 46.8414 234 46.7387 234H40.8447ZM52.4452 234.14C51.5866 234.14 50.8726 233.981 50.3032 233.664C49.7432 233.347 49.3186 232.903 49.0292 232.334C48.7399 231.765 48.5812 231.102 48.5532 230.346C48.5439 229.963 48.5392 229.553 48.5392 229.114C48.5392 228.675 48.5439 228.255 48.5532 227.854C48.5812 227.098 48.7399 226.435 49.0292 225.866C49.3186 225.297 49.7432 224.853 50.3032 224.536C50.8726 224.219 51.5866 224.06 52.4452 224.06C53.0892 224.06 53.6539 224.149 54.1392 224.326C54.6246 224.503 55.0259 224.741 55.3432 225.04C55.6699 225.339 55.9172 225.675 56.0852 226.048C56.2532 226.412 56.3466 226.79 56.3652 227.182C56.3746 227.266 56.3466 227.336 56.2812 227.392C56.2252 227.448 56.1552 227.476 56.0712 227.476H55.3012C55.2172 227.476 55.1426 227.453 55.0772 227.406C55.0212 227.359 54.9792 227.275 54.9512 227.154C54.7926 226.426 54.4939 225.927 54.0552 225.656C53.6259 225.385 53.0846 225.25 52.4312 225.25C51.6846 225.25 51.0919 225.465 50.6532 225.894C50.2146 226.314 49.9766 226.991 49.9392 227.924C49.9112 228.689 49.9112 229.473 49.9392 230.276C49.9766 231.209 50.2146 231.891 50.6532 232.32C51.0919 232.74 51.6846 232.95 52.4312 232.95C53.0846 232.95 53.6259 232.815 54.0552 232.544C54.4939 232.273 54.7926 231.774 54.9512 231.046C54.9792 230.925 55.0212 230.841 55.0772 230.794C55.1426 230.747 55.2172 230.724 55.3012 230.724H56.0712C56.1552 230.724 56.2252 230.752 56.2812 230.808C56.3466 230.864 56.3746 230.934 56.3652 231.018C56.3466 231.41 56.2532 231.793 56.0852 232.166C55.9172 232.53 55.6699 232.861 55.3432 233.16C55.0259 233.459 54.6246 233.697 54.1392 233.874C53.6539 234.051 53.0892 234.14 52.4452 234.14ZM58.5634 234C58.4608 234 58.3814 233.972 58.3254 233.916C58.2694 233.851 58.2414 233.771 58.2414 233.678V224.536C58.2414 224.433 58.2694 224.354 58.3254 224.298C58.3814 224.233 58.4608 224.2 58.5634 224.2H59.2634C59.3661 224.2 59.4454 224.233 59.5014 224.298C59.5668 224.354 59.5994 224.433 59.5994 224.536V228.008L63.3374 224.424C63.3748 224.387 63.4354 224.34 63.5194 224.284C63.6128 224.228 63.7341 224.2 63.8834 224.2H64.6394C64.7141 224.2 64.7794 224.228 64.8354 224.284C64.8914 224.34 64.9194 224.405 64.9194 224.48C64.9194 224.555 64.9008 224.615 64.8634 224.662L60.5374 228.89L65.1434 233.524C65.1901 233.58 65.2134 233.645 65.2134 233.72C65.2134 233.795 65.1854 233.86 65.1294 233.916C65.0734 233.972 65.0081 234 64.9334 234H64.1494C63.9908 234 63.8694 233.972 63.7854 233.916C63.7014 233.851 63.6408 233.804 63.6034 233.776L59.5994 229.828V233.678C59.5994 233.771 59.5668 233.851 59.5014 233.916C59.4454 233.972 59.3661 234 59.2634 234H58.5634ZM70.2666 234C70.1639 234 70.0846 233.972 70.0286 233.916C69.9726 233.851 69.9446 233.771 69.9446 233.678V224.522C69.9446 224.429 69.9726 224.354 70.0286 224.298C70.0846 224.233 70.1639 224.2 70.2666 224.2H71.0086C71.1019 224.2 71.1766 224.233 71.2326 224.298C71.2979 224.354 71.3306 224.429 71.3306 224.522V233.678C71.3306 233.771 71.2979 233.851 71.2326 233.916C71.1766 233.972 71.1019 234 71.0086 234H70.2666ZM74.0947 234C73.992 234 73.9127 233.972 73.8567 233.916C73.8007 233.851 73.7727 233.771 73.7727 233.678V224.536C73.7727 224.433 73.8007 224.354 73.8567 224.298C73.9127 224.233 73.992 224.2 74.0947 224.2H74.7387C74.8507 224.2 74.9347 224.228 74.9907 224.284C75.0467 224.331 75.0794 224.368 75.0887 224.396L79.7367 231.536V224.536C79.7367 224.433 79.7647 224.354 79.8207 224.298C79.8767 224.233 79.956 224.2 80.0587 224.2H80.7307C80.8334 224.2 80.9127 224.233 80.9687 224.298C81.034 224.354 81.0667 224.433 81.0667 224.536V233.664C81.0667 233.757 81.034 233.837 80.9687 233.902C80.9127 233.967 80.838 234 80.7447 234H80.0727C79.97 234 79.8907 233.972 79.8347 233.916C79.788 233.86 79.7554 233.823 79.7367 233.804L75.1027 226.734V233.678C75.1027 233.771 75.07 233.851 75.0047 233.916C74.9487 233.972 74.8694 234 74.7667 234H74.0947Z" fill="#767E86"/>
<path d="M23.584 254.934C23.9947 254.934 24.3167 254.981 24.55 255.074C24.7927 255.158 25.04 255.284 25.292 255.452C25.4973 255.583 25.656 255.648 25.768 255.648C25.852 255.648 25.9173 255.601 25.964 255.508C26.0107 255.405 26.048 255.247 26.076 255.032H26.398C26.3513 255.573 26.328 256.525 26.328 257.888H26.006C25.95 257.132 25.7307 256.497 25.348 255.984C24.9747 255.461 24.4287 255.2 23.71 255.2C23.206 255.2 22.7953 255.354 22.478 255.662C22.1607 255.961 22.002 256.348 22.002 256.824C22.002 257.179 22.0813 257.487 22.24 257.748C22.408 258.009 22.618 258.233 22.87 258.42C23.122 258.607 23.4813 258.845 23.948 259.134L24.354 259.386C24.942 259.75 25.404 260.072 25.74 260.352C26.0853 260.623 26.3607 260.935 26.566 261.29C26.7713 261.645 26.874 262.06 26.874 262.536C26.874 263.385 26.594 264.043 26.034 264.51C25.474 264.967 24.7647 265.196 23.906 265.196C23.458 265.196 23.0893 265.149 22.8 265.056C22.52 264.963 22.2493 264.837 21.988 264.678C21.7827 264.547 21.624 264.482 21.512 264.482C21.428 264.482 21.3627 264.533 21.316 264.636C21.2693 264.729 21.232 264.883 21.204 265.098H20.882C20.9193 264.585 20.938 263.465 20.938 261.738H21.26C21.3253 262.681 21.5587 263.446 21.96 264.034C22.3613 264.622 22.9773 264.916 23.808 264.916C24.312 264.916 24.7413 264.762 25.096 264.454C25.4507 264.137 25.628 263.67 25.628 263.054C25.628 262.531 25.4507 262.088 25.096 261.724C24.7507 261.36 24.2 260.949 23.444 260.492C22.8933 260.156 22.4453 259.857 22.1 259.596C21.764 259.335 21.4887 259.022 21.274 258.658C21.0593 258.285 20.952 257.851 20.952 257.356C20.952 256.572 21.204 255.975 21.708 255.564C22.212 255.144 22.8373 254.934 23.584 254.934ZM34.3225 263.488C34.3225 263.917 34.4019 264.23 34.5605 264.426C34.7192 264.622 34.9945 264.72 35.3865 264.72V265.014C35.0972 264.986 34.8079 264.972 34.5185 264.972C33.9305 264.972 33.4452 265.037 33.0625 265.168V263.516C32.8385 264.095 32.5212 264.519 32.1105 264.79C31.6999 265.061 31.2519 265.196 30.7665 265.196C30.1319 265.196 29.6465 265.019 29.3105 264.664C29.1425 264.477 29.0212 264.239 28.9465 263.95C28.8812 263.661 28.8485 263.287 28.8485 262.83V259.316C28.8485 258.887 28.7692 258.574 28.6105 258.378C28.4519 258.182 28.1765 258.084 27.7845 258.084V257.79C28.0739 257.818 28.3632 257.832 28.6525 257.832C29.2405 257.832 29.7259 257.767 30.1085 257.636V263.138C30.1085 263.493 30.1272 263.782 30.1645 264.006C30.2112 264.221 30.3092 264.398 30.4585 264.538C30.6172 264.678 30.8552 264.748 31.1725 264.748C31.5272 264.748 31.8492 264.636 32.1385 264.412C32.4279 264.188 32.6519 263.885 32.8105 263.502C32.9785 263.11 33.0625 262.681 33.0625 262.214V259.316C33.0625 258.887 32.9832 258.574 32.8245 258.378C32.6659 258.182 32.3905 258.084 31.9985 258.084V257.79C32.2879 257.818 32.5772 257.832 32.8665 257.832C33.4545 257.832 33.9399 257.767 34.3225 257.636V263.488ZM40.8053 257.594C41.4586 257.594 41.9533 257.771 42.2893 258.126C42.4666 258.313 42.5926 258.546 42.6673 258.826C42.742 259.106 42.7793 259.484 42.7793 259.96V263.698C42.7793 264.081 42.8586 264.347 43.0173 264.496C43.176 264.636 43.4513 264.706 43.8433 264.706V265C42.9846 264.963 42.4246 264.944 42.1633 264.944C41.902 264.944 41.3793 264.963 40.5953 265V264.706C40.9406 264.706 41.1786 264.636 41.3093 264.496C41.4493 264.347 41.5193 264.081 41.5193 263.698V259.652C41.5193 259.129 41.4446 258.733 41.2953 258.462C41.146 258.182 40.8426 258.042 40.3853 258.042C40.0026 258.042 39.662 258.154 39.3633 258.378C39.0646 258.602 38.8313 258.91 38.6633 259.302C38.5046 259.685 38.4253 260.114 38.4253 260.59V263.698C38.4253 264.081 38.4906 264.347 38.6213 264.496C38.7613 264.636 39.004 264.706 39.3493 264.706V265C38.5653 264.963 38.0426 264.944 37.7813 264.944C37.52 264.944 36.96 264.963 36.1013 265V264.706C36.4933 264.706 36.7686 264.636 36.9273 264.496C37.086 264.347 37.1653 264.081 37.1653 263.698V259.316C37.1653 258.887 37.086 258.574 36.9273 258.378C36.7686 258.182 36.4933 258.084 36.1013 258.084V257.79C36.4 257.818 36.6893 257.832 36.9693 257.832C37.5573 257.832 38.0426 257.767 38.4253 257.636V259.288C38.6586 258.691 38.9806 258.261 39.3913 258C39.8113 257.729 40.2826 257.594 40.8053 257.594ZM45.8128 263.404C46.1768 263.404 46.4522 263.553 46.6388 263.852C46.7975 264.104 46.8768 264.412 46.8768 264.776C46.8768 265.243 46.7555 265.663 46.5128 266.036C46.2795 266.409 45.9202 266.708 45.4348 266.932L45.3088 266.68C45.5982 266.559 45.8455 266.367 46.0508 266.106C46.2655 265.845 46.3728 265.579 46.3728 265.308C46.3728 265.196 46.3588 265.098 46.3308 265.014C46.1815 265.135 46.0088 265.196 45.8128 265.196C45.5608 265.196 45.3462 265.117 45.1688 264.958C45.0008 264.79 44.9168 264.571 44.9168 264.3C44.9168 264.048 45.0008 263.838 45.1688 263.67C45.3462 263.493 45.5608 263.404 45.8128 263.404ZM54.7275 263.558C54.7275 263.997 54.8255 264.3 55.0215 264.468C55.2269 264.627 55.5769 264.706 56.0715 264.706V265C55.0635 264.963 54.4195 264.944 54.1395 264.944C53.8782 264.944 53.2715 264.958 52.3195 264.986L51.9835 265V264.706C52.4782 264.706 52.8469 264.622 53.0895 264.454C53.3415 264.286 53.4675 263.987 53.4675 263.558V260.17C53.4675 259.722 53.4209 259.395 53.3275 259.19C53.2342 258.975 53.0755 258.835 52.8515 258.77C52.6369 258.695 52.3009 258.658 51.8435 258.658V258.35C52.5249 258.331 53.0849 258.271 53.5235 258.168C53.9715 258.065 54.3729 257.888 54.7275 257.636V263.558ZM61.9392 258.098C61.7992 258.425 61.5565 258.924 61.2112 259.596C60.8472 260.296 60.5532 260.903 60.3292 261.416C60.1052 261.92 59.9139 262.503 59.7552 263.166C59.5965 263.819 59.5172 264.515 59.5172 265.252C59.5172 265.439 59.5265 265.663 59.5452 265.924C59.5639 266.129 59.5732 266.274 59.5732 266.358C59.5732 266.573 59.5125 266.745 59.3912 266.876C59.2699 267.007 59.1112 267.072 58.9152 267.072C58.7099 267.072 58.5512 266.997 58.4392 266.848C58.3365 266.699 58.2852 266.512 58.2852 266.288C58.2852 265.569 58.3925 264.86 58.6072 264.16C58.8312 263.46 59.0972 262.816 59.4052 262.228C59.7225 261.631 60.1332 260.917 60.6372 260.086L61.2952 258.98H57.9772C57.7252 258.98 57.5339 259.003 57.4032 259.05C57.2819 259.087 57.1979 259.157 57.1512 259.26C57.1045 259.353 57.0672 259.498 57.0392 259.694H56.8012C56.8012 258.77 56.7825 258.117 56.7452 257.734C56.9599 257.781 57.6552 257.804 58.8312 257.804H61.9392V258.098ZM64.7147 257.804H66.7867V258.084H64.7147V263.502C64.7147 263.922 64.7894 264.225 64.9387 264.412C65.0974 264.599 65.3214 264.692 65.6107 264.692C65.9 264.692 66.1474 264.575 66.3527 264.342C66.558 264.109 66.7307 263.726 66.8707 263.194L67.1507 263.264C66.9174 264.552 66.3107 265.196 65.3307 265.196C65.0134 265.196 64.752 265.159 64.5467 265.084C64.3414 265.009 64.1594 264.893 64.0007 264.734C63.7954 264.529 63.6507 264.277 63.5667 263.978C63.492 263.679 63.4547 263.278 63.4547 262.774V258.084H62.1107V257.804H63.4547V255.662C63.9774 255.643 64.3974 255.578 64.7147 255.466V257.804ZM69.6079 259.274C69.8412 258.686 70.1632 258.261 70.5739 258C70.9939 257.729 71.4652 257.594 71.9879 257.594C72.6412 257.594 73.1359 257.771 73.4719 258.126C73.6492 258.313 73.7752 258.546 73.8499 258.826C73.9246 259.106 73.9619 259.484 73.9619 259.96V263.698C73.9619 264.081 74.0412 264.347 74.1999 264.496C74.3586 264.636 74.6339 264.706 75.0259 264.706V265C74.1672 264.963 73.6072 264.944 73.3459 264.944C73.0846 264.944 72.5619 264.963 71.7779 265V264.706C72.1232 264.706 72.3612 264.636 72.4919 264.496C72.6319 264.347 72.7019 264.081 72.7019 263.698V259.652C72.7019 259.129 72.6272 258.733 72.4779 258.462C72.3286 258.182 72.0252 258.042 71.5679 258.042C71.1852 258.042 70.8446 258.149 70.5459 258.364C70.2566 258.579 70.0279 258.882 69.8599 259.274C69.6919 259.657 69.6079 260.091 69.6079 260.576V263.698C69.6079 264.081 69.6732 264.347 69.8039 264.496C69.9439 264.636 70.1866 264.706 70.5319 264.706V265C69.7479 264.963 69.2252 264.944 68.9639 264.944C68.7026 264.944 68.1426 264.963 67.2839 265V264.706C67.6759 264.706 67.9512 264.636 68.1099 264.496C68.2686 264.347 68.3479 264.081 68.3479 263.698V255.718C68.3479 255.289 68.2686 254.976 68.1099 254.78C67.9512 254.584 67.6759 254.486 67.2839 254.486V254.192C67.5826 254.22 67.8719 254.234 68.1519 254.234C68.7399 254.234 69.2252 254.169 69.6079 254.038V259.274ZM82.3047 254.934C82.7154 254.934 83.0374 254.981 83.2707 255.074C83.5134 255.158 83.7607 255.284 84.0127 255.452C84.218 255.583 84.3767 255.648 84.4887 255.648C84.5727 255.648 84.638 255.601 84.6847 255.508C84.7314 255.405 84.7687 255.247 84.7967 255.032H85.1187C85.072 255.573 85.0487 256.525 85.0487 257.888H84.7267C84.6707 257.132 84.4514 256.497 84.0687 255.984C83.6954 255.461 83.1494 255.2 82.4307 255.2C81.9267 255.2 81.516 255.354 81.1987 255.662C80.8814 255.961 80.7227 256.348 80.7227 256.824C80.7227 257.179 80.802 257.487 80.9607 257.748C81.1287 258.009 81.3387 258.233 81.5907 258.42C81.8427 258.607 82.202 258.845 82.6687 259.134L83.0747 259.386C83.6627 259.75 84.1247 260.072 84.4607 260.352C84.806 260.623 85.0814 260.935 85.2867 261.29C85.492 261.645 85.5947 262.06 85.5947 262.536C85.5947 263.385 85.3147 264.043 84.7547 264.51C84.1947 264.967 83.4854 265.196 82.6267 265.196C82.1787 265.196 81.81 265.149 81.5207 265.056C81.2407 264.963 80.97 264.837 80.7087 264.678C80.5034 264.547 80.3447 264.482 80.2327 264.482C80.1487 264.482 80.0834 264.533 80.0367 264.636C79.99 264.729 79.9527 264.883 79.9247 265.098H79.6027C79.64 264.585 79.6587 263.465 79.6587 261.738H79.9807C80.046 262.681 80.2794 263.446 80.6807 264.034C81.082 264.622 81.698 264.916 82.5287 264.916C83.0327 264.916 83.462 264.762 83.8167 264.454C84.1714 264.137 84.3487 263.67 84.3487 263.054C84.3487 262.531 84.1714 262.088 83.8167 261.724C83.4714 261.36 82.9207 260.949 82.1647 260.492C81.614 260.156 81.166 259.857 80.8207 259.596C80.4847 259.335 80.2094 259.022 79.9947 258.658C79.78 258.285 79.6727 257.851 79.6727 257.356C79.6727 256.572 79.9247 255.975 80.4287 255.564C80.9327 255.144 81.558 254.934 82.3047 254.934ZM92.7633 263.32C92.5953 263.833 92.2779 264.277 91.8113 264.65C91.3539 265.014 90.7986 265.196 90.1453 265.196C89.4826 265.196 88.9086 265.047 88.4233 264.748C87.9379 264.44 87.5646 264.015 87.3033 263.474C87.0513 262.923 86.9253 262.289 86.9253 261.57C86.9253 260.758 87.0559 260.053 87.3173 259.456C87.5786 258.859 87.9473 258.401 88.4233 258.084C88.8993 257.757 89.4546 257.594 90.0893 257.594C90.9293 257.594 91.5733 257.851 92.0213 258.364C92.4786 258.868 92.7073 259.638 92.7073 260.674H88.3253C88.2973 260.935 88.2833 261.234 88.2833 261.57C88.2833 262.186 88.3813 262.723 88.5773 263.18C88.7826 263.637 89.0486 263.992 89.3753 264.244C89.7113 264.487 90.0613 264.608 90.4253 264.608C90.8733 264.608 91.2699 264.501 91.6153 264.286C91.9606 264.071 92.2499 263.712 92.4833 263.208L92.7633 263.32ZM90.0333 257.86C89.5946 257.86 89.2166 258.075 88.8993 258.504C88.5819 258.933 88.3859 259.568 88.3113 260.408H91.3633C91.3819 259.68 91.2746 259.073 91.0413 258.588C90.8173 258.103 90.4813 257.86 90.0333 257.86ZM98.2353 257.594C98.7299 257.594 99.1733 257.729 99.5653 258C99.9666 258.271 100.279 258.667 100.503 259.19C100.727 259.713 100.839 260.338 100.839 261.066C100.839 261.785 100.723 262.457 100.489 263.082C100.265 263.707 99.9106 264.216 99.4253 264.608C98.9493 265 98.3519 265.196 97.6333 265.196C97.2786 265.196 96.9566 265.126 96.6673 264.986C96.3779 264.846 96.1539 264.664 95.9953 264.44V266.232C95.9953 266.615 96.1073 266.876 96.3313 267.016C96.5553 267.165 96.8913 267.24 97.3393 267.24V267.534L97.0173 267.52C96.1493 267.492 95.5846 267.478 95.3233 267.478C95.0993 267.478 94.5953 267.497 93.8113 267.534V267.24C94.1566 267.24 94.3946 267.175 94.5253 267.044C94.6653 266.923 94.7353 266.699 94.7353 266.372V259.316C94.7353 258.887 94.6559 258.574 94.4973 258.378C94.3386 258.182 94.0633 258.084 93.6713 258.084V257.79C93.9606 257.818 94.2499 257.832 94.5393 257.832C95.1273 257.832 95.6126 257.767 95.9953 257.636V259.12C96.2006 258.635 96.4993 258.261 96.8913 258C97.2833 257.729 97.7313 257.594 98.2353 257.594ZM97.4793 264.874C98.8139 264.874 99.4813 263.67 99.4813 261.262C99.4813 259.097 98.9399 258.014 97.8573 258.014C97.4373 258.014 97.0593 258.168 96.7233 258.476C96.3873 258.775 96.1446 259.209 95.9953 259.778V263.978C96.1259 264.249 96.3173 264.468 96.5693 264.636C96.8213 264.795 97.1246 264.874 97.4793 264.874ZM108.4 257.594C109.054 257.594 109.567 257.748 109.94 258.056C110.314 258.364 110.5 258.798 110.5 259.358C110.5 259.741 110.398 260.114 110.192 260.478C109.996 260.833 109.754 261.159 109.464 261.458C109.184 261.757 108.811 262.116 108.344 262.536C107.962 262.891 107.677 263.161 107.49 263.348C107.304 263.525 107.136 263.717 106.986 263.922H109.828C110.08 263.922 110.267 263.903 110.388 263.866C110.519 263.819 110.608 263.749 110.654 263.656C110.701 263.553 110.738 263.404 110.766 263.208H111.004C111.004 264.067 111.023 264.687 111.06 265.07C110.855 265.023 110.16 265 108.974 265H105.698V264.762C105.857 264.594 106.128 264.328 106.51 263.964C107.042 263.469 107.486 263.026 107.84 262.634C108.195 262.233 108.498 261.78 108.75 261.276C109.012 260.772 109.142 260.235 109.142 259.666C109.142 258.658 108.676 258.154 107.742 258.154C106.977 258.154 106.352 258.593 105.866 259.47L105.642 259.344C105.885 258.84 106.23 258.425 106.678 258.098C107.126 257.762 107.7 257.594 108.4 257.594ZM115.954 257.594C116.607 257.594 117.19 257.748 117.704 258.056C118.217 258.355 118.618 258.784 118.908 259.344C119.197 259.904 119.342 260.548 119.342 261.276C119.342 262.023 119.192 262.695 118.894 263.292C118.595 263.88 118.175 264.347 117.634 264.692C117.102 265.028 116.49 265.196 115.8 265.196C115.156 265.196 114.577 265.047 114.064 264.748C113.55 264.44 113.144 264.006 112.846 263.446C112.556 262.886 112.412 262.237 112.412 261.5C112.412 260.763 112.556 260.1 112.846 259.512C113.144 258.915 113.56 258.448 114.092 258.112C114.633 257.767 115.254 257.594 115.954 257.594ZM115.828 257.846C115.426 257.846 115.067 257.991 114.75 258.28C114.442 258.56 114.199 258.975 114.022 259.526C113.854 260.067 113.77 260.711 113.77 261.458C113.77 262.643 113.97 263.521 114.372 264.09C114.773 264.659 115.291 264.944 115.926 264.944C116.327 264.944 116.682 264.799 116.99 264.51C117.307 264.221 117.55 263.805 117.718 263.264C117.895 262.713 117.984 262.065 117.984 261.318C117.984 260.142 117.783 259.269 117.382 258.7C116.98 258.131 116.462 257.846 115.828 257.846ZM123.494 257.594C124.147 257.594 124.661 257.748 125.034 258.056C125.407 258.364 125.594 258.798 125.594 259.358C125.594 259.741 125.491 260.114 125.286 260.478C125.09 260.833 124.847 261.159 124.558 261.458C124.278 261.757 123.905 262.116 123.438 262.536C123.055 262.891 122.771 263.161 122.584 263.348C122.397 263.525 122.229 263.717 122.08 263.922H124.922C125.174 263.922 125.361 263.903 125.482 263.866C125.613 263.819 125.701 263.749 125.748 263.656C125.795 263.553 125.832 263.404 125.86 263.208H126.098C126.098 264.067 126.117 264.687 126.154 265.07C125.949 265.023 125.253 265 124.068 265H120.792V264.762C120.951 264.594 121.221 264.328 121.604 263.964C122.136 263.469 122.579 263.026 122.934 262.634C123.289 262.233 123.592 261.78 123.844 261.276C124.105 260.772 124.236 260.235 124.236 259.666C124.236 258.658 123.769 258.154 122.836 258.154C122.071 258.154 121.445 258.593 120.96 259.47L120.736 259.344C120.979 258.84 121.324 258.425 121.772 258.098C122.22 257.762 122.794 257.594 123.494 257.594ZM131.047 257.594C131.701 257.594 132.284 257.748 132.797 258.056C133.311 258.355 133.712 258.784 134.001 259.344C134.291 259.904 134.435 260.548 134.435 261.276C134.435 262.023 134.286 262.695 133.987 263.292C133.689 263.88 133.269 264.347 132.727 264.692C132.195 265.028 131.584 265.196 130.893 265.196C130.249 265.196 129.671 265.047 129.157 264.748C128.644 264.44 128.238 264.006 127.939 263.446C127.65 262.886 127.505 262.237 127.505 261.5C127.505 260.763 127.65 260.1 127.939 259.512C128.238 258.915 128.653 258.448 129.185 258.112C129.727 257.767 130.347 257.594 131.047 257.594ZM130.921 257.846C130.52 257.846 130.161 257.991 129.843 258.28C129.535 258.56 129.293 258.975 129.115 259.526C128.947 260.067 128.863 260.711 128.863 261.458C128.863 262.643 129.064 263.521 129.465 264.09C129.867 264.659 130.385 264.944 131.019 264.944C131.421 264.944 131.775 264.799 132.083 264.51C132.401 264.221 132.643 263.805 132.811 263.264C132.989 262.713 133.077 262.065 133.077 261.318C133.077 260.142 132.877 259.269 132.475 258.7C132.074 258.131 131.556 257.846 130.921 257.846Z" fill="#172432"/>
<path d="M250 259.5L256 265.5L262 259.5" stroke="black" stroke-linecap="round" stroke-linejoin="round"/>
<path d="M268 283H20V285H268V283Z" fill="black" mask="url(#path-13-inside-3_38_791)"/>
<path d="M24.746 337.14C23.8873 337.14 23.1733 336.981 22.604 336.664C22.044 336.347 21.6193 335.903 21.33 335.334C21.0407 334.765 20.882 334.102 20.854 333.346C20.8447 332.963 20.84 332.553 20.84 332.114C20.84 331.675 20.8447 331.255 20.854 330.854C20.882 330.098 21.0407 329.435 21.33 328.866C21.6193 328.297 22.044 327.853 22.604 327.536C23.1733 327.219 23.8873 327.06 24.746 327.06C25.39 327.06 25.9547 327.149 26.44 327.326C26.9253 327.503 27.3267 327.741 27.644 328.04C27.9707 328.339 28.218 328.675 28.386 329.048C28.554 329.412 28.6473 329.79 28.666 330.182C28.6753 330.266 28.6473 330.336 28.582 330.392C28.526 330.448 28.456 330.476 28.372 330.476H27.602C27.518 330.476 27.4433 330.453 27.378 330.406C27.322 330.359 27.28 330.275 27.252 330.154C27.0933 329.426 26.7947 328.927 26.356 328.656C25.9267 328.385 25.3853 328.25 24.732 328.25C23.9853 328.25 23.3927 328.465 22.954 328.894C22.5153 329.314 22.2773 329.991 22.24 330.924C22.212 331.689 22.212 332.473 22.24 333.276C22.2773 334.209 22.5153 334.891 22.954 335.32C23.3927 335.74 23.9853 335.95 24.732 335.95C25.3853 335.95 25.9267 335.815 26.356 335.544C26.7947 335.273 27.0933 334.774 27.252 334.046C27.28 333.925 27.322 333.841 27.378 333.794C27.4433 333.747 27.518 333.724 27.602 333.724H28.372C28.456 333.724 28.526 333.752 28.582 333.808C28.6473 333.864 28.6753 333.934 28.666 334.018C28.6473 334.41 28.554 334.793 28.386 335.166C28.218 335.53 27.9707 335.861 27.644 336.16C27.3267 336.459 26.9253 336.697 26.44 336.874C25.9547 337.051 25.39 337.14 24.746 337.14ZM30.8642 337C30.7616 337 30.6822 336.972 30.6262 336.916C30.5702 336.851 30.5422 336.771 30.5422 336.678V327.536C30.5422 327.433 30.5702 327.354 30.6262 327.298C30.6822 327.233 30.7616 327.2 30.8642 327.2H31.5782C31.6809 327.2 31.7602 327.233 31.8162 327.298C31.8816 327.354 31.9142 327.433 31.9142 327.536V331.4H36.7302V327.536C36.7302 327.433 36.7582 327.354 36.8142 327.298C36.8796 327.233 36.9589 327.2 37.0522 327.2H37.7662C37.8689 327.2 37.9482 327.233 38.0042 327.298C38.0696 327.354 38.1022 327.433 38.1022 327.536V336.678C38.1022 336.771 38.0696 336.851 38.0042 336.916C37.9482 336.972 37.8689 337 37.7662 337H37.0522C36.9589 337 36.8796 336.972 36.8142 336.916C36.7582 336.851 36.7302 336.771 36.7302 336.678V332.66H31.9142V336.678C31.9142 336.771 31.8816 336.851 31.8162 336.916C31.7602 336.972 31.6809 337 31.5782 337H30.8642ZM40.8447 337C40.742 337 40.6627 336.972 40.6067 336.916C40.5507 336.851 40.5227 336.771 40.5227 336.678V327.536C40.5227 327.433 40.5507 327.354 40.6067 327.298C40.6627 327.233 40.742 327.2 40.8447 327.2H46.6267C46.7294 327.2 46.8087 327.233 46.8647 327.298C46.9207 327.354 46.9487 327.433 46.9487 327.536V328.068C46.9487 328.171 46.9207 328.25 46.8647 328.306C46.8087 328.362 46.7294 328.39 46.6267 328.39H41.8667V331.456H46.3187C46.4214 331.456 46.5007 331.489 46.5567 331.554C46.6127 331.61 46.6407 331.689 46.6407 331.792V332.31C46.6407 332.403 46.6127 332.483 46.5567 332.548C46.5007 332.604 46.4214 332.632 46.3187 332.632H41.8667V335.81H46.7387C46.8414 335.81 46.9207 335.838 46.9767 335.894C47.0327 335.95 47.0607 336.029 47.0607 336.132V336.678C47.0607 336.771 47.0327 336.851 46.9767 336.916C46.9207 336.972 46.8414 337 46.7387 337H40.8447ZM52.4452 337.14C51.5866 337.14 50.8726 336.981 50.3032 336.664C49.7432 336.347 49.3186 335.903 49.0292 335.334C48.7399 334.765 48.5812 334.102 48.5532 333.346C48.5439 332.963 48.5392 332.553 48.5392 332.114C48.5392 331.675 48.5439 331.255 48.5532 330.854C48.5812 330.098 48.7399 329.435 49.0292 328.866C49.3186 328.297 49.7432 327.853 50.3032 327.536C50.8726 327.219 51.5866 327.06 52.4452 327.06C53.0892 327.06 53.6539 327.149 54.1392 327.326C54.6246 327.503 55.0259 327.741 55.3432 328.04C55.6699 328.339 55.9172 328.675 56.0852 329.048C56.2532 329.412 56.3466 329.79 56.3652 330.182C56.3746 330.266 56.3466 330.336 56.2812 330.392C56.2252 330.448 56.1552 330.476 56.0712 330.476H55.3012C55.2172 330.476 55.1426 330.453 55.0772 330.406C55.0212 330.359 54.9792 330.275 54.9512 330.154C54.7926 329.426 54.4939 328.927 54.0552 328.656C53.6259 328.385 53.0846 328.25 52.4312 328.25C51.6846 328.25 51.0919 328.465 50.6532 328.894C50.2146 329.314 49.9766 329.991 49.9392 330.924C49.9112 331.689 49.9112 332.473 49.9392 333.276C49.9766 334.209 50.2146 334.891 50.6532 335.32C51.0919 335.74 51.6846 335.95 52.4312 335.95C53.0846 335.95 53.6259 335.815 54.0552 335.544C54.4939 335.273 54.7926 334.774 54.9512 334.046C54.9792 333.925 55.0212 333.841 55.0772 333.794C55.1426 333.747 55.2172 333.724 55.3012 333.724H56.0712C56.1552 333.724 56.2252 333.752 56.2812 333.808C56.3466 333.864 56.3746 333.934 56.3652 334.018C56.3466 334.41 56.2532 334.793 56.0852 335.166C55.9172 335.53 55.6699 335.861 55.3432 336.16C55.0259 336.459 54.6246 336.697 54.1392 336.874C53.6539 337.051 53.0892 337.14 52.4452 337.14ZM58.5634 337C58.4608 337 58.3814 336.972 58.3254 336.916C58.2694 336.851 58.2414 336.771 58.2414 336.678V327.536C58.2414 327.433 58.2694 327.354 58.3254 327.298C58.3814 327.233 58.4608 327.2 58.5634 327.2H59.2634C59.3661 327.2 59.4454 327.233 59.5014 327.298C59.5668 327.354 59.5994 327.433 59.5994 327.536V331.008L63.3374 327.424C63.3748 327.387 63.4354 327.34 63.5194 327.284C63.6128 327.228 63.7341 327.2 63.8834 327.2H64.6394C64.7141 327.2 64.7794 327.228 64.8354 327.284C64.8914 327.34 64.9194 327.405 64.9194 327.48C64.9194 327.555 64.9008 327.615 64.8634 327.662L60.5374 331.89L65.1434 336.524C65.1901 336.58 65.2134 336.645 65.2134 336.72C65.2134 336.795 65.1854 336.86 65.1294 336.916C65.0734 336.972 65.0081 337 64.9334 337H64.1494C63.9908 337 63.8694 336.972 63.7854 336.916C63.7014 336.851 63.6408 336.804 63.6034 336.776L59.5994 332.828V336.678C59.5994 336.771 59.5668 336.851 59.5014 336.916C59.4454 336.972 59.3661 337 59.2634 337H58.5634ZM73.4586 337.14C72.6652 337.14 71.9839 337.005 71.4146 336.734C70.8452 336.454 70.4066 336.029 70.0986 335.46C69.7906 334.881 69.6179 334.158 69.5806 333.29C69.5712 332.879 69.5666 332.487 69.5666 332.114C69.5666 331.731 69.5712 331.335 69.5806 330.924C69.6179 330.065 69.7952 329.351 70.1126 328.782C70.4392 328.203 70.8872 327.774 71.4566 327.494C72.0352 327.205 72.7026 327.06 73.4586 327.06C74.2239 327.06 74.8912 327.205 75.4606 327.494C76.0392 327.774 76.4919 328.203 76.8186 328.782C77.1452 329.351 77.3226 330.065 77.3506 330.924C77.3692 331.335 77.3786 331.731 77.3786 332.114C77.3786 332.487 77.3692 332.879 77.3506 333.29C77.3226 334.158 77.1499 334.881 76.8326 335.46C76.5246 336.029 76.0859 336.454 75.5166 336.734C74.9472 337.005 74.2612 337.14 73.4586 337.14ZM73.4586 335.95C74.1772 335.95 74.7606 335.735 75.2086 335.306C75.6659 334.877 75.9132 334.181 75.9506 333.22C75.9692 332.8 75.9786 332.427 75.9786 332.1C75.9786 331.764 75.9692 331.391 75.9506 330.98C75.9319 330.336 75.8106 329.813 75.5866 329.412C75.3719 329.011 75.0826 328.717 74.7186 328.53C74.3546 328.343 73.9346 328.25 73.4586 328.25C73.0012 328.25 72.5906 328.343 72.2266 328.53C71.8626 328.717 71.5686 329.011 71.3446 329.412C71.1299 329.813 71.0086 330.336 70.9806 330.98C70.9712 331.391 70.9666 331.764 70.9666 332.1C70.9666 332.427 70.9712 332.8 70.9806 333.22C71.0179 334.181 71.2652 334.877 71.7226 335.306C72.1799 335.735 72.7586 335.95 73.4586 335.95ZM83.1152 337.14C82.3312 337.14 81.6545 337 81.0852 336.72C80.5252 336.44 80.0912 336.015 79.7832 335.446C79.4845 334.867 79.3352 334.125 79.3352 333.22V327.536C79.3352 327.433 79.3632 327.354 79.4192 327.298C79.4752 327.233 79.5545 327.2 79.6572 327.2H80.3712C80.4738 327.2 80.5532 327.233 80.6092 327.298C80.6745 327.354 80.7072 327.433 80.7072 327.536V333.248C80.7072 334.163 80.9218 334.839 81.3512 335.278C81.7805 335.717 82.3685 335.936 83.1152 335.936C83.8525 335.936 84.4358 335.717 84.8652 335.278C85.3038 334.839 85.5232 334.163 85.5232 333.248V327.536C85.5232 327.433 85.5512 327.354 85.6072 327.298C85.6725 327.233 85.7518 327.2 85.8452 327.2H86.5732C86.6665 327.2 86.7412 327.233 86.7972 327.298C86.8625 327.354 86.8952 327.433 86.8952 327.536V333.22C86.8952 334.125 86.7412 334.867 86.4332 335.446C86.1345 336.015 85.7052 336.44 85.1452 336.72C84.5852 337 83.9085 337.14 83.1152 337.14ZM91.6996 337C91.6062 337 91.5269 336.972 91.4616 336.916C91.4056 336.851 91.3776 336.771 91.3776 336.678V328.446H88.6896C88.5962 328.446 88.5169 328.418 88.4516 328.362C88.3956 328.297 88.3676 328.217 88.3676 328.124V327.536C88.3676 327.433 88.3956 327.354 88.4516 327.298C88.5169 327.233 88.5962 327.2 88.6896 327.2H95.4376C95.5402 327.2 95.6196 327.233 95.6756 327.298C95.7409 327.354 95.7736 327.433 95.7736 327.536V328.124C95.7736 328.217 95.7409 328.297 95.6756 328.362C95.6196 328.418 95.5402 328.446 95.4376 328.446H92.7636V336.678C92.7636 336.771 92.7309 336.851 92.6656 336.916C92.6096 336.972 92.5302 337 92.4276 337H91.6996Z" fill="#767E86"/>
<path d="M28.288 358.088C28.2227 358.751 28.19 359.348 28.19 359.88C28.19 360.347 28.204 360.729 28.232 361.028H27.91C27.8353 360.309 27.742 359.777 27.63 359.432C27.518 359.077 27.322 358.821 27.042 358.662C26.762 358.494 26.3327 358.41 25.754 358.41H24.998V366.376C24.998 366.768 25.0353 367.053 25.11 367.23C25.1847 367.407 25.3153 367.529 25.502 367.594C25.6887 367.659 25.992 367.701 26.412 367.72V368C25.9267 367.972 25.2407 367.958 24.354 367.958C23.4207 367.958 22.73 367.972 22.282 368V367.72C22.702 367.701 23.0053 367.659 23.192 367.594C23.3787 367.529 23.5093 367.407 23.584 367.23C23.6587 367.053 23.696 366.768 23.696 366.376V358.41H22.94C22.3613 358.41 21.932 358.494 21.652 358.662C21.372 358.821 21.176 359.077 21.064 359.432C20.952 359.777 20.8587 360.309 20.784 361.028H20.462C20.49 360.729 20.504 360.347 20.504 359.88C20.504 359.348 20.4713 358.751 20.406 358.088C21.1807 358.116 22.4967 358.13 24.354 358.13C26.202 358.13 27.5133 358.116 28.288 358.088ZM34.4729 366.488C34.4729 366.917 34.5523 367.23 34.7109 367.426C34.8696 367.622 35.1449 367.72 35.5369 367.72V368.014C35.2476 367.986 34.9583 367.972 34.6689 367.972C34.0809 367.972 33.5956 368.037 33.2129 368.168V366.516C32.9889 367.095 32.6716 367.519 32.2609 367.79C31.8503 368.061 31.4023 368.196 30.9169 368.196C30.2823 368.196 29.7969 368.019 29.4609 367.664C29.2929 367.477 29.1716 367.239 29.0969 366.95C29.0316 366.661 28.9989 366.287 28.9989 365.83V362.316C28.9989 361.887 28.9196 361.574 28.7609 361.378C28.6023 361.182 28.3269 361.084 27.9349 361.084V360.79C28.2243 360.818 28.5136 360.832 28.8029 360.832C29.3909 360.832 29.8763 360.767 30.2589 360.636V366.138C30.2589 366.493 30.2776 366.782 30.3149 367.006C30.3616 367.221 30.4596 367.398 30.6089 367.538C30.7676 367.678 31.0056 367.748 31.3229 367.748C31.6776 367.748 31.9996 367.636 32.2889 367.412C32.5783 367.188 32.8023 366.885 32.9609 366.502C33.1289 366.11 33.2129 365.681 33.2129 365.214V362.316C33.2129 361.887 33.1336 361.574 32.9749 361.378C32.8163 361.182 32.5409 361.084 32.1489 361.084V360.79C32.4383 360.818 32.7276 360.832 33.0169 360.832C33.6049 360.832 34.0903 360.767 34.4729 360.636V366.488ZM42.3277 366.32C42.1597 366.833 41.8424 367.277 41.3757 367.65C40.9184 368.014 40.363 368.196 39.7097 368.196C39.047 368.196 38.473 368.047 37.9877 367.748C37.5024 367.44 37.129 367.015 36.8677 366.474C36.6157 365.923 36.4897 365.289 36.4897 364.57C36.4897 363.758 36.6204 363.053 36.8817 362.456C37.143 361.859 37.5117 361.401 37.9877 361.084C38.4637 360.757 39.019 360.594 39.6537 360.594C40.4937 360.594 41.1377 360.851 41.5857 361.364C42.043 361.868 42.2717 362.638 42.2717 363.674H37.8897C37.8617 363.935 37.8477 364.234 37.8477 364.57C37.8477 365.186 37.9457 365.723 38.1417 366.18C38.347 366.637 38.613 366.992 38.9397 367.244C39.2757 367.487 39.6257 367.608 39.9897 367.608C40.4377 367.608 40.8344 367.501 41.1797 367.286C41.525 367.071 41.8144 366.712 42.0477 366.208L42.3277 366.32ZM39.5977 360.86C39.159 360.86 38.781 361.075 38.4637 361.504C38.1464 361.933 37.9504 362.568 37.8757 363.408H40.9277C40.9464 362.68 40.839 362.073 40.6057 361.588C40.3817 361.103 40.0457 360.86 39.5977 360.86ZM44.6917 366.404C45.0557 366.404 45.3311 366.553 45.5177 366.852C45.6764 367.104 45.7557 367.412 45.7557 367.776C45.7557 368.243 45.6344 368.663 45.3917 369.036C45.1584 369.409 44.7991 369.708 44.3137 369.932L44.1877 369.68C44.4771 369.559 44.7244 369.367 44.9297 369.106C45.1444 368.845 45.2517 368.579 45.2517 368.308C45.2517 368.196 45.2377 368.098 45.2097 368.014C45.0604 368.135 44.8877 368.196 44.6917 368.196C44.4397 368.196 44.2251 368.117 44.0477 367.958C43.8797 367.79 43.7957 367.571 43.7957 367.3C43.7957 367.048 43.8797 366.838 44.0477 366.67C44.2251 366.493 44.4397 366.404 44.6917 366.404ZM53.6065 366.558C53.6065 366.997 53.7045 367.3 53.9005 367.468C54.1058 367.627 54.4558 367.706 54.9505 367.706V368C53.9425 367.963 53.2985 367.944 53.0185 367.944C52.7571 367.944 52.1505 367.958 51.1985 367.986L50.8625 368V367.706C51.3571 367.706 51.7258 367.622 51.9685 367.454C52.2205 367.286 52.3465 366.987 52.3465 366.558V363.17C52.3465 362.722 52.2998 362.395 52.2065 362.19C52.1131 361.975 51.9545 361.835 51.7305 361.77C51.5158 361.695 51.1798 361.658 50.7225 361.658V361.35C51.4038 361.331 51.9638 361.271 52.4025 361.168C52.8505 361.065 53.2518 360.888 53.6065 360.636V366.558ZM60.8181 361.098C60.6781 361.425 60.4354 361.924 60.0901 362.596C59.7261 363.296 59.4321 363.903 59.2081 364.416C58.9841 364.92 58.7928 365.503 58.6341 366.166C58.4754 366.819 58.3961 367.515 58.3961 368.252C58.3961 368.439 58.4054 368.663 58.4241 368.924C58.4428 369.129 58.4521 369.274 58.4521 369.358C58.4521 369.573 58.3914 369.745 58.2701 369.876C58.1488 370.007 57.9901 370.072 57.7941 370.072C57.5888 370.072 57.4301 369.997 57.3181 369.848C57.2154 369.699 57.1641 369.512 57.1641 369.288C57.1641 368.569 57.2714 367.86 57.4861 367.16C57.7101 366.46 57.9761 365.816 58.2841 365.228C58.6014 364.631 59.0121 363.917 59.5161 363.086L60.1741 361.98H56.8561C56.6041 361.98 56.4128 362.003 56.2821 362.05C56.1608 362.087 56.0768 362.157 56.0301 362.26C55.9834 362.353 55.9461 362.498 55.9181 362.694H55.6801C55.6801 361.77 55.6614 361.117 55.6241 360.734C55.8388 360.781 56.5341 360.804 57.7101 360.804H60.8181V361.098ZM63.5936 360.804H65.6656V361.084H63.5936V366.502C63.5936 366.922 63.6683 367.225 63.8176 367.412C63.9763 367.599 64.2003 367.692 64.4896 367.692C64.7789 367.692 65.0263 367.575 65.2316 367.342C65.4369 367.109 65.6096 366.726 65.7496 366.194L66.0296 366.264C65.7963 367.552 65.1896 368.196 64.2096 368.196C63.8923 368.196 63.6309 368.159 63.4256 368.084C63.2203 368.009 63.0383 367.893 62.8796 367.734C62.6743 367.529 62.5296 367.277 62.4456 366.978C62.3709 366.679 62.3336 366.278 62.3336 365.774V361.084H60.9896V360.804H62.3336V358.662C62.8563 358.643 63.2763 358.578 63.5936 358.466V360.804ZM68.4868 362.274C68.7201 361.686 69.0421 361.261 69.4528 361C69.8728 360.729 70.3441 360.594 70.8668 360.594C71.5201 360.594 72.0148 360.771 72.3508 361.126C72.5281 361.313 72.6541 361.546 72.7288 361.826C72.8035 362.106 72.8408 362.484 72.8408 362.96V366.698C72.8408 367.081 72.9201 367.347 73.0788 367.496C73.2375 367.636 73.5128 367.706 73.9048 367.706V368C73.0461 367.963 72.4861 367.944 72.2248 367.944C71.9635 367.944 71.4408 367.963 70.6568 368V367.706C71.0021 367.706 71.2401 367.636 71.3708 367.496C71.5108 367.347 71.5808 367.081 71.5808 366.698V362.652C71.5808 362.129 71.5061 361.733 71.3568 361.462C71.2075 361.182 70.9041 361.042 70.4468 361.042C70.0641 361.042 69.7235 361.149 69.4248 361.364C69.1355 361.579 68.9068 361.882 68.7388 362.274C68.5708 362.657 68.4868 363.091 68.4868 363.576V366.698C68.4868 367.081 68.5521 367.347 68.6828 367.496C68.8228 367.636 69.0655 367.706 69.4108 367.706V368C68.6268 367.963 68.1041 367.944 67.8428 367.944C67.5815 367.944 67.0215 367.963 66.1628 368V367.706C66.5548 367.706 66.8301 367.636 66.9888 367.496C67.1475 367.347 67.2268 367.081 67.2268 366.698V358.718C67.2268 358.289 67.1475 357.976 66.9888 357.78C66.8301 357.584 66.5548 357.486 66.1628 357.486V357.192C66.4615 357.22 66.7508 357.234 67.0308 357.234C67.6188 357.234 68.1041 357.169 68.4868 357.038V362.274ZM82.7936 357.892C83.6803 357.892 84.4549 358.093 85.1176 358.494C85.7896 358.895 86.3076 359.479 86.6716 360.244C87.0449 361 87.2316 361.905 87.2316 362.96C87.2316 363.987 87.0403 364.897 86.6576 365.69C86.2843 366.483 85.7569 367.099 85.0756 367.538C84.4036 367.977 83.6383 368.196 82.7796 368.196C81.8929 368.196 81.1136 367.995 80.4416 367.594C79.7789 367.193 79.2609 366.614 78.8876 365.858C78.5236 365.093 78.3416 364.183 78.3416 363.128C78.3416 362.101 78.5283 361.191 78.9016 360.398C79.2843 359.605 79.8116 358.989 80.4836 358.55C81.1649 358.111 81.9349 357.892 82.7936 357.892ZM82.7376 358.144C82.1403 358.144 81.6129 358.354 81.1556 358.774C80.7076 359.185 80.3576 359.763 80.1056 360.51C79.8629 361.257 79.7416 362.111 79.7416 363.072C79.7416 364.043 79.8769 364.897 80.1476 365.634C80.4276 366.371 80.8009 366.941 81.2676 367.342C81.7343 367.743 82.2569 367.944 82.8356 367.944C83.4329 367.944 83.9556 367.739 84.4036 367.328C84.8609 366.908 85.2109 366.325 85.4536 365.578C85.7056 364.831 85.8316 363.977 85.8316 363.016C85.8316 362.045 85.6916 361.191 85.4116 360.454C85.1409 359.717 84.7723 359.147 84.3056 358.746C83.8389 358.345 83.3163 358.144 82.7376 358.144ZM91.8826 360.594C92.5079 360.594 93.0492 360.743 93.5066 361.042C93.9452 361.331 94.1646 361.691 94.1646 362.12C94.1646 362.363 94.0946 362.554 93.9546 362.694C93.8146 362.834 93.6372 362.904 93.4226 362.904C93.2079 362.904 93.0259 362.843 92.8766 362.722C92.7272 362.591 92.6526 362.419 92.6526 362.204C92.6526 362.008 92.7086 361.845 92.8206 361.714C92.9326 361.574 93.0726 361.481 93.2406 361.434C93.1472 361.266 92.9792 361.126 92.7366 361.014C92.5032 360.902 92.2512 360.846 91.9806 360.846C91.6352 360.846 91.3132 360.958 91.0146 361.182C90.7159 361.397 90.4686 361.761 90.2726 362.274C90.0766 362.778 89.9786 363.445 89.9786 364.276C89.9786 365.433 90.1652 366.278 90.5386 366.81C90.9119 367.333 91.3972 367.594 91.9946 367.594C92.3959 367.594 92.7739 367.477 93.1286 367.244C93.4926 367.011 93.7912 366.647 94.0246 366.152L94.2906 366.25C94.1319 366.782 93.8332 367.239 93.3946 367.622C92.9652 368.005 92.4052 368.196 91.7146 368.196C91.1359 368.196 90.6086 368.047 90.1326 367.748C89.6659 367.449 89.2972 367.02 89.0266 366.46C88.7559 365.891 88.6206 365.233 88.6206 364.486C88.6206 363.73 88.7559 363.058 89.0266 362.47C89.3066 361.882 89.6939 361.425 90.1886 361.098C90.6832 360.762 91.2479 360.594 91.8826 360.594ZM97.4452 360.804H99.5172V361.084H97.4452V366.502C97.4452 366.922 97.5198 367.225 97.6692 367.412C97.8278 367.599 98.0518 367.692 98.3412 367.692C98.6305 367.692 98.8778 367.575 99.0832 367.342C99.2885 367.109 99.4612 366.726 99.6012 366.194L99.8812 366.264C99.6478 367.552 99.0412 368.196 98.0612 368.196C97.7438 368.196 97.4825 368.159 97.2772 368.084C97.0718 368.009 96.8898 367.893 96.7312 367.734C96.5258 367.529 96.3812 367.277 96.2972 366.978C96.2225 366.679 96.1852 366.278 96.1852 365.774V361.084H94.8412V360.804H96.1852V358.662C96.7078 358.643 97.1278 358.578 97.4452 358.466V360.804ZM106.404 360.594C107.058 360.594 107.571 360.748 107.944 361.056C108.318 361.364 108.504 361.798 108.504 362.358C108.504 362.741 108.402 363.114 108.196 363.478C108 363.833 107.758 364.159 107.468 364.458C107.188 364.757 106.815 365.116 106.348 365.536C105.966 365.891 105.681 366.161 105.494 366.348C105.308 366.525 105.14 366.717 104.99 366.922H107.832C108.084 366.922 108.271 366.903 108.392 366.866C108.523 366.819 108.612 366.749 108.658 366.656C108.705 366.553 108.742 366.404 108.77 366.208H109.008C109.008 367.067 109.027 367.687 109.064 368.07C108.859 368.023 108.164 368 106.978 368H103.702V367.762C103.861 367.594 104.132 367.328 104.514 366.964C105.046 366.469 105.49 366.026 105.844 365.634C106.199 365.233 106.502 364.78 106.754 364.276C107.016 363.772 107.146 363.235 107.146 362.666C107.146 361.658 106.68 361.154 105.746 361.154C104.981 361.154 104.356 361.593 103.87 362.47L103.646 362.344C103.889 361.84 104.234 361.425 104.682 361.098C105.13 360.762 105.704 360.594 106.404 360.594ZM113.958 360.594C114.611 360.594 115.194 360.748 115.708 361.056C116.221 361.355 116.622 361.784 116.912 362.344C117.201 362.904 117.346 363.548 117.346 364.276C117.346 365.023 117.196 365.695 116.898 366.292C116.599 366.88 116.179 367.347 115.638 367.692C115.106 368.028 114.494 368.196 113.803 368.196C113.16 368.196 112.581 368.047 112.068 367.748C111.554 367.44 111.148 367.006 110.85 366.446C110.56 365.886 110.416 365.237 110.416 364.5C110.416 363.763 110.56 363.1 110.85 362.512C111.148 361.915 111.564 361.448 112.096 361.112C112.637 360.767 113.258 360.594 113.958 360.594ZM113.832 360.846C113.43 360.846 113.071 360.991 112.754 361.28C112.446 361.56 112.203 361.975 112.026 362.526C111.858 363.067 111.774 363.711 111.774 364.458C111.774 365.643 111.974 366.521 112.376 367.09C112.777 367.659 113.295 367.944 113.93 367.944C114.331 367.944 114.686 367.799 114.994 367.51C115.311 367.221 115.554 366.805 115.722 366.264C115.899 365.713 115.988 365.065 115.988 364.318C115.988 363.142 115.787 362.269 115.386 361.7C114.984 361.131 114.466 360.846 113.832 360.846ZM121.498 360.594C122.151 360.594 122.665 360.748 123.038 361.056C123.411 361.364 123.598 361.798 123.598 362.358C123.598 362.741 123.495 363.114 123.29 363.478C123.094 363.833 122.851 364.159 122.562 364.458C122.282 364.757 121.909 365.116 121.442 365.536C121.059 365.891 120.775 366.161 120.588 366.348C120.401 366.525 120.233 366.717 120.084 366.922H122.926C123.178 366.922 123.365 366.903 123.486 366.866C123.617 366.819 123.705 366.749 123.752 366.656C123.799 366.553 123.836 366.404 123.864 366.208H124.102C124.102 367.067 124.121 367.687 124.158 368.07C123.953 368.023 123.257 368 122.072 368H118.796V367.762C118.955 367.594 119.225 367.328 119.608 366.964C120.14 366.469 120.583 366.026 120.938 365.634C121.293 365.233 121.596 364.78 121.848 364.276C122.109 363.772 122.24 363.235 122.24 362.666C122.24 361.658 121.773 361.154 120.84 361.154C120.075 361.154 119.449 361.593 118.964 362.47L118.74 362.344C118.983 361.84 119.328 361.425 119.776 361.098C120.224 360.762 120.798 360.594 121.498 360.594ZM129.051 360.594C129.705 360.594 130.288 360.748 130.801 361.056C131.315 361.355 131.716 361.784 132.005 362.344C132.295 362.904 132.439 363.548 132.439 364.276C132.439 365.023 132.29 365.695 131.991 366.292C131.693 366.88 131.273 367.347 130.731 367.692C130.199 368.028 129.588 368.196 128.897 368.196C128.253 368.196 127.675 368.047 127.161 367.748C126.648 367.44 126.242 367.006 125.943 366.446C125.654 365.886 125.509 365.237 125.509 364.5C125.509 363.763 125.654 363.1 125.943 362.512C126.242 361.915 126.657 361.448 127.189 361.112C127.731 360.767 128.351 360.594 129.051 360.594ZM128.925 360.846C128.524 360.846 128.165 360.991 127.847 361.28C127.539 361.56 127.297 361.975 127.119 362.526C126.951 363.067 126.867 363.711 126.867 364.458C126.867 365.643 127.068 366.521 127.469 367.09C127.871 367.659 128.389 367.944 129.023 367.944C129.425 367.944 129.779 367.799 130.087 367.51C130.405 367.221 130.647 366.805 130.815 366.264C130.993 365.713 131.081 365.065 131.081 364.318C131.081 363.142 130.881 362.269 130.479 361.7C130.078 361.131 129.56 360.846 128.925 360.846Z" fill="#172432"/>
<path d="M250 362.5L256 368.5L262 362.5" stroke="black" stroke-linecap="round" stroke-linejoin="round"/>
<path d="M268 386H20V388H268V386Z" fill="black" mask="url(#path-18-inside-4_38_791)"/>
<rect x="244" y="250" width="23" height="20" fill="white"/>
<rect x="244" y="353" width="23" height="20" fill="white"/>
<path d="M0 467H288V563C288 578.085 288 585.627 283.314 590.314C278.627 595 271.085 595 256 595H32C16.9151 595 9.37258 595 4.68629 590.314C0 585.627 0 578.085 0 563V467Z" fill="#FF7757"/>
<path d="M21.512 520.512C22.016 520.536 22.676 520.56 23.492 520.584C24.308 520.608 25.112 520.62 25.904 520.62C27.032 520.62 28.112 520.608 29.144 520.584C30.176 520.56 30.908 520.548 31.34 520.548C33.86 520.548 35.756 521.076 37.028 522.132C38.3 523.188 38.936 524.544 38.936 526.2C38.936 527.04 38.756 527.868 38.396 528.684C38.06 529.476 37.484 530.208 36.668 530.88C35.876 531.528 34.808 532.056 33.464 532.464V532.536C35.36 532.776 36.836 533.232 37.892 533.904C38.972 534.552 39.728 535.32 40.16 536.208C40.592 537.096 40.808 538.032 40.808 539.016C40.808 540.384 40.46 541.596 39.764 542.652C39.092 543.684 38.108 544.5 36.812 545.1C35.516 545.7 33.968 546 32.168 546C31.64 546 30.848 545.988 29.792 545.964C28.736 545.916 27.464 545.892 25.976 545.892C25.136 545.892 24.308 545.904 23.492 545.928C22.676 545.928 22.016 545.952 21.512 546V545.28C22.328 545.232 22.94 545.136 23.348 544.992C23.78 544.848 24.068 544.56 24.212 544.128C24.356 543.696 24.428 543.048 24.428 542.184V524.328C24.428 523.44 24.356 522.792 24.212 522.384C24.068 521.952 23.78 521.664 23.348 521.52C22.94 521.352 22.328 521.256 21.512 521.232V520.512ZM30.44 521.232C29.336 521.232 28.616 521.436 28.28 521.844C27.944 522.252 27.776 523.08 27.776 524.328V542.184C27.776 543.024 27.848 543.66 27.992 544.092C28.136 544.524 28.4 544.812 28.784 544.956C29.168 545.1 29.732 545.172 30.476 545.172C32.828 545.172 34.532 544.632 35.588 543.552C36.668 542.448 37.208 540.888 37.208 538.872C37.208 537.024 36.704 535.596 35.696 534.588C34.712 533.58 33.08 533.076 30.8 533.076H27.092C27.092 533.076 27.092 532.98 27.092 532.788C27.092 532.572 27.092 532.464 27.092 532.464H30.188C31.604 532.464 32.696 532.2 33.464 531.672C34.232 531.12 34.76 530.4 35.048 529.512C35.336 528.6 35.48 527.628 35.48 526.596C35.48 524.82 35.084 523.488 34.292 522.6C33.524 521.688 32.24 521.232 30.44 521.232ZM52.2937 526.956C53.8297 526.956 55.2097 527.292 56.4337 527.964C57.6577 528.636 58.6297 529.692 59.3497 531.132C60.0937 532.572 60.4657 534.444 60.4657 536.748C60.4657 539.052 60.0937 540.924 59.3497 542.364C58.6297 543.78 57.6577 544.824 56.4337 545.496C55.2097 546.168 53.8297 546.504 52.2937 546.504C50.7817 546.504 49.4017 546.168 48.1537 545.496C46.9297 544.824 45.9457 543.78 45.2017 542.364C44.4817 540.924 44.1217 539.052 44.1217 536.748C44.1217 534.444 44.4817 532.572 45.2017 531.132C45.9457 529.692 46.9297 528.636 48.1537 527.964C49.4017 527.292 50.7817 526.956 52.2937 526.956ZM52.2937 527.676C50.9257 527.676 49.7977 528.384 48.9097 529.8C48.0457 531.216 47.6137 533.532 47.6137 536.748C47.6137 539.964 48.0457 542.28 48.9097 543.696C49.7977 545.088 50.9257 545.784 52.2937 545.784C53.6617 545.784 54.7777 545.088 55.6417 543.696C56.5297 542.28 56.9737 539.964 56.9737 536.748C56.9737 533.532 56.5297 531.216 55.6417 529.8C54.7777 528.384 53.6617 527.676 52.2937 527.676ZM72.0163 526.956C73.5523 526.956 74.9323 527.292 76.1563 527.964C77.3803 528.636 78.3523 529.692 79.0723 531.132C79.8163 532.572 80.1883 534.444 80.1883 536.748C80.1883 539.052 79.8163 540.924 79.0723 542.364C78.3523 543.78 77.3803 544.824 76.1563 545.496C74.9323 546.168 73.5523 546.504 72.0163 546.504C70.5043 546.504 69.1243 546.168 67.8763 545.496C66.6523 544.824 65.6683 543.78 64.9243 542.364C64.2043 540.924 63.8443 539.052 63.8443 536.748C63.8443 534.444 64.2043 532.572 64.9243 531.132C65.6683 529.692 66.6523 528.636 67.8763 527.964C69.1243 527.292 70.5043 526.956 72.0163 526.956ZM72.0163 527.676C70.6483 527.676 69.5203 528.384 68.6323 529.8C67.7683 531.216 67.3363 533.532 67.3363 536.748C67.3363 539.964 67.7683 542.28 68.6323 543.696C69.5203 545.088 70.6483 545.784 72.0163 545.784C73.3843 545.784 74.5003 545.088 75.3643 543.696C76.2523 542.28 76.6963 539.964 76.6963 536.748C76.6963 533.532 76.2523 531.216 75.3643 529.8C74.5003 528.384 73.3843 527.676 72.0163 527.676ZM88.2194 517.776V542.652C88.2194 543.66 88.3994 544.344 88.7594 544.704C89.1194 545.064 89.7314 545.244 90.5954 545.244V546C90.2114 545.976 89.6354 545.952 88.8674 545.928C88.1234 545.88 87.3674 545.856 86.5994 545.856C85.7834 545.856 84.9554 545.88 84.1154 545.928C83.2754 545.952 82.6514 545.976 82.2434 546V545.244C83.2274 545.244 83.9234 545.064 84.3314 544.704C84.7634 544.344 84.9794 543.66 84.9794 542.652V522.096C84.9794 521.016 84.7874 520.224 84.4034 519.72C84.0194 519.192 83.2994 518.928 82.2434 518.928V518.172C83.0114 518.244 83.7554 518.28 84.4754 518.28C85.1714 518.28 85.8314 518.244 86.4554 518.172C87.1034 518.076 87.6914 517.944 88.2194 517.776ZM99.6674 527.46V528.18C99.0674 528.228 98.5034 528.396 97.9754 528.684C97.4474 528.948 96.9314 529.344 96.4274 529.872L91.3514 535.2L91.8554 534.192L98.5514 543.372C98.9594 543.924 99.3434 544.356 99.7034 544.668C100.087 544.98 100.543 545.172 101.071 545.244V546C100.807 545.976 100.387 545.952 99.8114 545.928C99.2594 545.88 98.7074 545.856 98.1554 545.856C97.4114 545.856 96.6554 545.88 95.8874 545.928C95.1194 545.952 94.5434 545.976 94.1594 546V545.244C94.6394 545.244 94.9754 545.124 95.1674 544.884C95.3594 544.644 95.3234 544.356 95.0594 544.02L90.9194 537.972C90.4634 537.324 90.0434 536.904 89.6594 536.712C89.2994 536.52 88.7714 536.412 88.0754 536.388V535.668C88.8434 535.572 89.4674 535.416 89.9474 535.2C90.4274 534.96 90.8834 534.612 91.3154 534.156L93.9794 531.384C94.7474 530.592 95.1314 529.968 95.1314 529.512C95.1314 529.032 94.8794 528.696 94.3754 528.504C93.8954 528.288 93.2594 528.18 92.4674 528.18V527.46C93.0914 527.484 93.7874 527.52 94.5554 527.568C95.3474 527.592 96.0074 527.604 96.5354 527.604C96.9434 527.604 97.3394 527.604 97.7234 527.604C98.1074 527.58 98.4674 527.556 98.8034 527.532C99.1394 527.508 99.4274 527.484 99.6674 527.46ZM133.979 520.512V521.232C133.163 521.256 132.539 521.376 132.107 521.592C131.699 521.808 131.423 522.156 131.279 522.636C131.135 523.116 131.063 523.8 131.063 524.688V546.18C130.919 546.18 130.775 546.18 130.631 546.18C130.511 546.18 130.379 546.18 130.235 546.18L115.115 522.816V541.824C115.115 542.688 115.187 543.372 115.331 543.876C115.499 544.356 115.811 544.704 116.267 544.92C116.747 545.112 117.455 545.232 118.391 545.28V546C117.959 545.952 117.395 545.928 116.699 545.928C116.003 545.904 115.343 545.892 114.719 545.892C114.119 545.892 113.507 545.904 112.883 545.928C112.283 545.928 111.779 545.952 111.371 546V545.28C112.187 545.232 112.799 545.112 113.207 544.92C113.639 544.704 113.927 544.356 114.071 543.876C114.215 543.372 114.287 542.688 114.287 541.824V524.328C114.287 523.44 114.215 522.792 114.071 522.384C113.927 521.952 113.639 521.664 113.207 521.52C112.799 521.352 112.187 521.256 111.371 521.232V520.512C111.779 520.536 112.283 520.56 112.883 520.584C113.507 520.608 114.119 520.62 114.719 520.62C115.247 520.62 115.751 520.608 116.231 520.584C116.711 520.56 117.143 520.536 117.527 520.512L130.235 540.096V524.688C130.235 523.8 130.151 523.116 129.983 522.636C129.839 522.156 129.527 521.808 129.047 521.592C128.591 521.376 127.895 521.256 126.959 521.232V520.512C127.391 520.536 127.955 520.56 128.651 520.584C129.371 520.608 130.031 520.62 130.631 520.62C131.255 520.62 131.867 520.608 132.467 520.584C133.091 520.56 133.595 520.536 133.979 520.512ZM144.509 526.956C146.045 526.956 147.425 527.292 148.649 527.964C149.873 528.636 150.845 529.692 151.565 531.132C152.309 532.572 152.681 534.444 152.681 536.748C152.681 539.052 152.309 540.924 151.565 542.364C150.845 543.78 149.873 544.824 148.649 545.496C147.425 546.168 146.045 546.504 144.509 546.504C142.997 546.504 141.617 546.168 140.369 545.496C139.145 544.824 138.161 543.78 137.417 542.364C136.697 540.924 136.337 539.052 136.337 536.748C136.337 534.444 136.697 532.572 137.417 531.132C138.161 529.692 139.145 528.636 140.369 527.964C141.617 527.292 142.997 526.956 144.509 526.956ZM144.509 527.676C143.141 527.676 142.013 528.384 141.125 529.8C140.261 531.216 139.829 533.532 139.829 536.748C139.829 539.964 140.261 542.28 141.125 543.696C142.013 545.088 143.141 545.784 144.509 545.784C145.877 545.784 146.993 545.088 147.857 543.696C148.745 542.28 149.189 539.964 149.189 536.748C149.189 533.532 148.745 531.216 147.857 529.8C146.993 528.384 145.877 527.676 144.509 527.676ZM161.969 527.46V528.216C161.369 528.216 160.841 528.264 160.385 528.36C159.929 528.432 159.629 528.672 159.485 529.08C159.341 529.488 159.449 530.208 159.809 531.24L163.553 541.968L163.301 541.932L168.593 527.316L169.313 527.604L162.725 546.18C162.629 546.18 162.533 546.18 162.437 546.18C162.341 546.18 162.233 546.18 162.113 546.18L156.209 530.232C155.825 529.272 155.441 528.696 155.057 528.504C154.697 528.312 154.385 528.216 154.121 528.216V527.46C154.601 527.532 155.093 527.592 155.597 527.64C156.125 527.664 156.689 527.676 157.289 527.676C158.033 527.676 158.813 527.652 159.629 527.604C160.469 527.556 161.249 527.508 161.969 527.46ZM181.733 527.46V528.18C181.277 528.228 180.845 528.432 180.437 528.792C180.053 529.128 179.705 529.764 179.393 530.7L174.173 546.18C174.077 546.18 173.981 546.18 173.885 546.18C173.789 546.18 173.681 546.18 173.561 546.18L167.765 531.456L168.593 527.316C168.737 527.316 168.869 527.316 168.989 527.316C169.133 527.316 169.277 527.316 169.421 527.316L175.037 542.184L174.749 542.4L178.313 531.564C178.577 530.748 178.673 530.112 178.601 529.656C178.553 529.176 178.313 528.828 177.881 528.612C177.473 528.372 176.837 528.228 175.973 528.18V527.46C176.405 527.484 176.777 527.508 177.089 527.532C177.401 527.532 177.701 527.544 177.989 527.568C178.301 527.568 178.637 527.568 178.997 527.568C179.549 527.568 180.041 527.556 180.473 527.532C180.929 527.508 181.349 527.484 181.733 527.46Z" fill="white"/>
<path d="M268.707 531.707C269.098 531.317 269.098 530.683 268.707 530.293L262.343 523.929C261.953 523.538 261.319 523.538 260.929 523.929C260.538 524.319 260.538 524.953 260.929 525.343L266.586 531L260.929 536.657C260.538 537.047 260.538 537.681 260.929 538.071C261.319 538.462 261.953 538.462 262.343 538.071L268.707 531.707ZM247 532L268 532L268 530L247 530L247 532Z" fill="white"/>
</svg>
